<svg xmlns="http://www.w3.org/2000/svg" width="190" height="67.918" viewBox="0 0 190 67.918">
  <g id="Grupo_1109822" data-name="Grupo 1109822" transform="translate(-1230.051 -2708)">
    <rect id="Rectángulo_402371" data-name="Rectángulo 402371" width="190" height="44" transform="translate(1230.051 2708)" fill="#fbd9ab"/>
    <g id="Grupo_1109711" data-name="Grupo 1109711" transform="translate(1243.102 2742.423)">
      <path id="Trazado_900573" data-name="Trazado 900573" d="M435.983,108.183,426.13,98.33l-2.061,2.064,7.792,7.79-7.792,7.792,2.061,2.061Z" transform="translate(-344.085 -98.33)" fill="#62c5df"/>
      <path id="Trazado_900574" data-name="Trazado 900574" d="M442.239,108.183l-9.853-9.853-2.061,2.064,7.792,7.79-7.792,7.792,2.061,2.061Z" transform="translate(-366.338 -98.33)" fill="#62c5df"/>
      <path id="Trazado_900575" data-name="Trazado 900575" d="M448.494,108.183l-9.853-9.853-2.061,2.064,7.789,7.79-7.789,7.792,2.061,2.061Z" transform="translate(-388.589 -98.33)" fill="#62c5df"/>
      <path id="Trazado_900576" data-name="Trazado 900576" d="M454.75,108.183,444.9,98.33l-2.061,2.064,7.792,7.79-7.792,7.792,2.061,2.061Z" transform="translate(-410.842 -98.33)" fill="#62c5df"/>
      <path id="Trazado_900577" data-name="Trazado 900577" d="M461.005,108.183l-9.853-9.853-2.061,2.064,7.792,7.79-7.792,7.792,2.061,2.061Z" transform="translate(-433.094 -98.33)" fill="#62c5df"/>
      <path id="Trazado_900578" data-name="Trazado 900578" d="M467.261,108.183l-9.853-9.853-2.061,2.064,7.792,7.79-7.792,7.792,2.061,2.061Z" transform="translate(-455.346 -98.33)" fill="#62c5df"/>
    </g>
    <path id="Trazado_900467" data-name="Trazado 900467" d="M.616,67.4a.734.734,0,0,0,1.032.073L68.011,2.138a.734.734,0,0,0-.056-1.033.734.734,0,0,0-1.032-.073L.56,66.367A.734.734,0,0,0,.616,67.4ZM6.243,56.667,52.367,11.258a.782.782,0,0,0-1.088-1.105L5.155,55.562a.734.734,0,0,0,.056,1.033A.733.733,0,0,0,6.243,56.667Zm55.647-43.6L17.814,56.455a.781.781,0,0,0,1.088,1.1L62.977,14.168a.781.781,0,0,0-1.088-1.1Z" transform="translate(1351.802 2707.146)" fill="#e2d6c6" fill-rule="evenodd"/>
    <g id="Grupo_1109844" data-name="Grupo 1109844" transform="translate(1292.133 2701.928)">
      <g id="Grupo_1109840" data-name="Grupo 1109840" transform="translate(1.009 8.009)">
        <g id="Grupo_1109821" data-name="Grupo 1109821" transform="translate(54.884 39.82)">
          <path id="Trazado_901285" data-name="Trazado 901285" d="M425.723,315.63a5.112,5.112,0,1,1-5.112-5.112A5.111,5.111,0,0,1,425.723,315.63Z" transform="translate(-415.5 -310.518)" fill="#bfd749"/>
        </g>
        <path id="Trazado_901286" data-name="Trazado 901286" d="M421.688,320.321a5.112,5.112,0,0,1,.058-9.675,5.112,5.112,0,1,0,.488,9.831A5.01,5.01,0,0,1,421.688,320.321Z" transform="translate(-360.616 -270.698)" fill="#84c341"/>
        <g id="Grupo_1109822-2" data-name="Grupo 1109822" transform="translate(54.04 36.695)">
          <path id="Trazado_901287" data-name="Trazado 901287" d="M415.818,293.208a1.681,1.681,0,0,1-2.837,1.805l-1.667-2.619-2.084-3.287a7.153,7.153,0,0,0,2.831-1.821l2.125,3.358Z" transform="translate(-409.231 -287.286)" fill="#b3b5bc"/>
        </g>
        <g id="Grupo_1109823" data-name="Grupo 1109823" transform="translate(54.04 37.776)">
          <path id="Trazado_901288" data-name="Trazado 901288" d="M414.424,301.11l-1.667-2.619-2.007-3.166a6.931,6.931,0,0,1-1.52.739l2.084,3.287,1.667,2.619a1.682,1.682,0,0,0,2.888-.085A1.679,1.679,0,0,1,414.424,301.11Z" transform="translate(-409.231 -295.325)" fill="#9c9fa7"/>
        </g>
        <path id="Trazado_901289" data-name="Trazado 901289" d="M82.539,225.5H70.5v25.02a6.186,6.186,0,0,0,10.284,4.637l2.092-2.9V225.5Z" transform="translate(-62.025 -197.117)" fill="#b4e3f5"/>
        <path id="Trazado_901290" data-name="Trazado 901290" d="M75.017,250.52V225.5H70.5v25.02a6.189,6.189,0,0,0,8.415,5.774l.031-.013A6.188,6.188,0,0,1,75.017,250.52Z" transform="translate(-62.025 -197.117)" fill="#83d3f0"/>
        <g id="XMLID_8_">
          <g id="Grupo_1109831" data-name="Grupo 1109831">
            <g id="XMLID_9_">
              <g id="Grupo_1109830" data-name="Grupo 1109830">
                <g id="Grupo_1109824" data-name="Grupo 1109824" transform="translate(38.136 30.623)">
                  <path id="Trazado_901291" data-name="Trazado 901291" d="M299.746,245.513l-8.746.016v-3.363l8.737-.016a7.177,7.177,0,0,0,.009,3.363Z" transform="translate(-291 -242.15)" fill="#b3b5bc"/>
                </g>
                <path id="Trazado_901292" data-name="Trazado 901292" d="M294.218,242.544v-.318l-3.218.006v3.363l8.746-.016a7.161,7.161,0,0,1-.2-1.5l-3.787.007A1.54,1.54,0,0,1,294.218,242.544Z" transform="translate(-252.864 -211.593)" fill="#9c9fa7"/>
                <g id="Grupo_1109825" data-name="Grupo 1109825" transform="translate(0 59.592)">
                  <path id="Trazado_901293" data-name="Trazado 901293" d="M74.356,458.984V461.4a1.484,1.484,0,0,1-1.484,1.484H8.984A1.484,1.484,0,0,1,7.5,461.4v-2.413A1.484,1.484,0,0,1,8.984,457.5H72.872A1.484,1.484,0,0,1,74.356,458.984Z" transform="translate(-7.5 -457.5)" fill="#bb7a58"/>
                </g>
                <path id="Trazado_901294" data-name="Trazado 901294" d="M12.347,460.19a1.484,1.484,0,0,1-1.484-1.484V457.5H8.984A1.484,1.484,0,0,0,7.5,458.984V461.4a1.484,1.484,0,0,0,1.484,1.484H72.872a1.484,1.484,0,0,0,1.484-1.484V460.19Z" transform="translate(-7.5 -397.908)" fill="#aa624f"/>
                <g id="Grupo_1109826" data-name="Grupo 1109826" transform="translate(6.995 26.097)">
                  <path id="Trazado_901295" data-name="Trazado 901295" d="M74.835,210.316a1.814,1.814,0,0,1-1.816,1.816h-11.7a1.816,1.816,0,1,1,0-3.632h11.7A1.815,1.815,0,0,1,74.835,210.316Z" transform="translate(-59.5 -208.5)" fill="#4cb8e9"/>
                </g>
                <path id="Trazado_901296" data-name="Trazado 901296" d="M64.659,210.316a1.814,1.814,0,0,1,1.816-1.816H61.316a1.816,1.816,0,0,0,0,3.632h5.159A1.815,1.815,0,0,1,64.659,210.316Z" transform="translate(-52.505 -182.403)" fill="#0aa5dc"/>
                <g id="Grupo_1109827" data-name="Grupo 1109827" transform="translate(8.744 12.241)">
                  <circle id="Elipse_11528" data-name="Elipse 11528" cx="3.094" cy="3.094" r="3.094" fill="#ef5227"/>
                </g>
                <path id="Trazado_901297" data-name="Trazado 901297" d="M74.632,108.594a3.1,3.1,0,0,1,2.028-2.905,3.094,3.094,0,1,0,0,5.81A3.1,3.1,0,0,1,74.632,108.594Z" transform="translate(-63.756 -93.259)" fill="#e43a26"/>
                <g id="Grupo_1109828" data-name="Grupo 1109828" transform="translate(21.119)">
                  <path id="Trazado_901298" data-name="Trazado 901298" d="M169.612,14.5a5.112,5.112,0,1,1-5.112,5.112A5.111,5.111,0,0,1,169.612,14.5Z" transform="translate(-164.5 -14.5)" fill="#bfd749"/>
                </g>
                <path id="Trazado_901299" data-name="Trazado 901299" d="M168.132,19.612a5.112,5.112,0,0,1,3.3-4.779,5.112,5.112,0,1,0,0,9.557A5.112,5.112,0,0,1,168.132,19.612Z" transform="translate(-143.381 -14.5)" fill="#84c341"/>
                <g id="Grupo_1109829" data-name="Grupo 1109829" transform="translate(38.338 6.86)">
                  <circle id="Elipse_11529" data-name="Elipse 11529" cx="1.614" cy="1.614" r="1.614" fill="#bfd749"/>
                </g>
                <path id="Trazado_901300" data-name="Trazado 901300" d="M293.9,67.114a1.612,1.612,0,0,1,.913-1.453,1.614,1.614,0,1,0,0,2.905A1.612,1.612,0,0,1,293.9,67.114Z" transform="translate(-254.162 -58.64)" fill="#84c341"/>
              </g>
            </g>
          </g>
        </g>
        <g id="Grupo_1109832" data-name="Grupo 1109832" transform="translate(11.838 40.087)">
          <path id="Trazado_901301" data-name="Trazado 901301" d="M101.15,312.708v13.04a2.871,2.871,0,0,1-2.716,2.892,2.828,2.828,0,0,1-2.934-2.823V312.708a.208.208,0,0,1,.208-.208h5.234A.208.208,0,0,1,101.15,312.708Z" transform="translate(-95.5 -312.5)" fill="#ef5227"/>
        </g>
        <path id="Trazado_901302" data-name="Trazado 901302" d="M96.654,325.817V312.5h-.946a.208.208,0,0,0-.208.208v13.109a2.829,2.829,0,0,0,1.728,2.6A6.158,6.158,0,0,1,96.654,325.817Z" transform="translate(-83.662 -272.413)" fill="#e43a26"/>
        <path id="Trazado_901303" data-name="Trazado 901303" d="M169.662,180.784l-8.557-12.419a2.7,2.7,0,0,1-.479-1.536V145.65h-11.7v21.179a2.7,2.7,0,0,1-.479,1.536l-6.18,8.968-2.377,3.45a4.3,4.3,0,0,0,.285,5.265,4.212,4.212,0,0,0,3.242,1.484h22.72A4.3,4.3,0,0,0,169.662,180.784Z" transform="translate(-121.414 -128.008)" fill="#a3dcef"/>
        <path id="Trazado_901304" data-name="Trazado 901304" d="M145.15,186.049a4.3,4.3,0,0,1-.285-5.265l2.377-3.45,6.18-8.968a2.7,2.7,0,0,0,.479-1.536V145.65h-4.977v21.179a2.7,2.7,0,0,1-.479,1.536l-6.18,8.968-2.377,3.45a4.3,4.3,0,0,0,.285,5.265,4.212,4.212,0,0,0,3.242,1.484h4.977A4.212,4.212,0,0,1,145.15,186.049Z" transform="translate(-121.414 -128.008)" fill="#83d3f0"/>
        <g id="Grupo_1109833" data-name="Grupo 1109833" transform="translate(30.67 23.944)">
          <path id="Trazado_901305" data-name="Trazado 901305" d="M237.652,192.5a2.152,2.152,0,1,1-2.152,2.152A2.152,2.152,0,0,1,237.652,192.5Z" transform="translate(-235.5 -192.5)" fill="#bfd749"/>
        </g>
        <g id="Grupo_1109834" data-name="Grupo 1109834" transform="translate(30.939 34.571)">
          <circle id="Elipse_11530" data-name="Elipse 11530" cx="2.959" cy="2.959" r="2.959" fill="#bfd749"/>
        </g>
        <path id="Trazado_901306" data-name="Trazado 901306" d="M237.4,194.518a2.149,2.149,0,0,1,1.067-1.857,2.153,2.153,0,1,0,.269,3.848A2.152,2.152,0,0,1,237.4,194.518Z" transform="translate(-204.83 -168.556)" fill="#84c341"/>
        <path id="Trazado_901307" data-name="Trazado 901307" d="M239.854,273.854a2.953,2.953,0,0,1,1.111-2.31,2.959,2.959,0,1,0-.506,5.875,2.946,2.946,0,0,0,1.849-.649A2.96,2.96,0,0,1,239.854,273.854Z" transform="translate(-206.561 -236.929)" fill="#84c341"/>
        <g id="Grupo_1109835" data-name="Grupo 1109835" transform="translate(21.741 44.795)">
          <path id="Trazado_901308" data-name="Trazado 901308" d="M192.306,357.663a.253.253,0,0,1-.207.4h-22.72a.253.253,0,0,1-.207-.4l6.573-9.506A1.52,1.52,0,0,1,177,347.5h7.485a1.52,1.52,0,0,1,1.252.656Z" transform="translate(-169.119 -347.5)" fill="#bfd749"/>
        </g>
        <circle id="Elipse_11531" data-name="Elipse 11531" cx="7.163" cy="7.163" r="7.163" transform="translate(44.896 25.088)" fill="#4cb8e9"/>
        <path id="Trazado_901309" data-name="Trazado 901309" d="M345.117,208.163a7.165,7.165,0,0,1,5.229-6.9,7.163,7.163,0,1,0,0,13.794A7.165,7.165,0,0,1,345.117,208.163Z" transform="translate(-296.354 -175.912)" fill="#0aa5dc"/>
        <g id="Grupo_1109836" data-name="Grupo 1109836" transform="translate(50.377 19.625)">
          <path id="Trazado_901310" data-name="Trazado 901310" d="M385.363,166.122v1.951a1.681,1.681,0,1,1-3.363,0V160.39a5.122,5.122,0,0,0,3.363,0Z" transform="translate(-382 -160.39)" fill="#b3b5bc"/>
        </g>
        <g id="Grupo_1109837" data-name="Grupo 1109837" transform="translate(50.377 19.625)">
          <path id="Trazado_901311" data-name="Trazado 901311" d="M383.455,168.072v-7.4A5.063,5.063,0,0,1,382,160.39v7.682a1.678,1.678,0,0,0,2.409,1.514A1.681,1.681,0,0,1,383.455,168.072Z" transform="translate(-382 -160.39)" fill="#9c9fa7"/>
        </g>
        <g id="Grupo_1109838" data-name="Grupo 1109838" transform="translate(46.947 10.761)">
          <path id="Trazado_901312" data-name="Trazado 901312" d="M366.723,99.612a5.112,5.112,0,1,1-5.112-5.112A5.111,5.111,0,0,1,366.723,99.612Z" transform="translate(-356.5 -94.5)" fill="#ef5227"/>
        </g>
        <path id="Trazado_901313" data-name="Trazado 901313" d="M359.93,99.612a5.113,5.113,0,0,1,3.4-4.816,5.112,5.112,0,1,0-.034,9.644l.034-.012A5.11,5.11,0,0,1,359.93,99.612Z" transform="translate(-309.553 -83.739)" fill="#e43a26"/>
        <g id="Grupo_1109839" data-name="Grupo 1109839" transform="translate(25.368 14.999)">
          <path id="Trazado_901314" data-name="Trazado 901314" d="M212.066,127.816v.222a1.815,1.815,0,0,1-1.816,1.816H197.9a1.815,1.815,0,0,1-1.816-1.816v-.222A1.815,1.815,0,0,1,197.9,126H210.25A1.815,1.815,0,0,1,212.066,127.816Z" transform="translate(-196.08 -126)" fill="#4cb8e9"/>
        </g>
        <path id="Trazado_901315" data-name="Trazado 901315" d="M202.055,128.038v-.222A1.815,1.815,0,0,1,203.871,126H197.9a1.815,1.815,0,0,0-1.816,1.816v.222a1.815,1.815,0,0,0,1.816,1.816h5.975A1.815,1.815,0,0,1,202.055,128.038Z" transform="translate(-170.712 -111.001)" fill="#0aa5dc"/>
        <path id="Trazado_901316" data-name="Trazado 901316" d="M175.366,352.644l2.722-5.144H177a1.52,1.52,0,0,0-1.252.656l-6.573,9.506a.253.253,0,0,0,.207.4H182.1c-1.655-.54-3.624-1.175-5.218-1.686A2.626,2.626,0,0,1,175.366,352.644Z" transform="translate(-147.379 -302.705)" fill="#84c341"/>
      </g>
      <g id="Grupo_1109841" data-name="Grupo 1109841" transform="translate(0 7)">
        <path id="Trazado_901317" data-name="Trazado 901317" d="M168.415,341.092l-6.573,9.506a1.262,1.262,0,0,0,1.038,1.979H185.6a1.261,1.261,0,0,0,1.038-1.979l-6.573-9.507A2.531,2.531,0,0,0,177.983,340H170.5A2.532,2.532,0,0,0,168.415,341.092Zm9.99,1.147,5.753,8.321H164.322l5.753-8.321a.514.514,0,0,1,.422-.221h7.486A.514.514,0,0,1,178.405,342.239Z" transform="translate(-139.871 -295.205)"/>
        <path id="Trazado_901318" data-name="Trazado 901318" d="M233.968,264a3.968,3.968,0,1,0,3.968,3.968A3.973,3.973,0,0,0,233.968,264Zm0,5.919a1.951,1.951,0,1,1,1.951-1.951A1.953,1.953,0,0,1,233.968,269.919Z" transform="translate(-199.061 -229.429)"/>
        <path id="Trazado_901319" data-name="Trazado 901319" d="M231.161,191.322A3.161,3.161,0,1,0,228,188.161,3.165,3.165,0,0,0,231.161,191.322Zm0-4.3a1.143,1.143,0,1,1-1.143,1.143A1.145,1.145,0,0,1,231.161,187.018Z" transform="translate(-197.33 -161.056)"/>
        <path id="Trazado_901320" data-name="Trazado 901320" d="M66.381,135.83H49.838a5.511,5.511,0,0,0,.578-.885,5.308,5.308,0,0,0-.328-5.495l-8.557-12.418a1.694,1.694,0,0,1-.3-.965v-3.812l4.163-.012a8.143,8.143,0,0,0,9.528,5.213l1,1.564A5.985,5.985,0,1,0,61,116.191q-.249,0-.5.021l-1.048-1.647a8.134,8.134,0,0,0-3.7-12.714V98.618a6.121,6.121,0,1,0-5.381,0v3.232a8.1,8.1,0,0,0-5,5.013l-4.144.012V104.11a1.009,1.009,0,1,0-2.018,0v11.958a3.7,3.7,0,0,0,.656,2.11L48.426,130.6a3.294,3.294,0,0,1-2.7,5.168H23.01a3.217,3.217,0,0,1-2.428-1.074c-.018-.024-.037-.048-.057-.071l-.039-.041a3.412,3.412,0,0,1-.376-.57,3.253,3.253,0,0,1,.2-3.412l2.377-3.449.007-.01,6.173-8.959a3.7,3.7,0,0,0,.656-2.11V97.109h9.687v2.965a1.009,1.009,0,1,0,2.018,0V97.025a2.83,2.83,0,0,0,2.141-2.741v-.222a2.828,2.828,0,0,0-2.825-2.825H28.192a2.828,2.828,0,0,0-2.825,2.825v.222a2.83,2.83,0,0,0,2.141,2.741v19.042a1.694,1.694,0,0,1-.3.965l-4.341,6.3V107.644a2.825,2.825,0,0,0-1.345-5.309H9.82a2.825,2.825,0,0,0-1.345,5.309v15.206a1.009,1.009,0,0,0,2.018,0V107.985H20.85v18.274l-1.345,1.952V117.334a1.009,1.009,0,0,0-1.009-1.009h-5.65a1.009,1.009,0,0,0-1.009,1.009v13.317a3.832,3.832,0,0,0,6.039,3.135,5.35,5.35,0,0,0,.447,1.159c.02.039.041.078.063.116a5.178,5.178,0,0,1-7.893-4.41v-3.767a1.009,1.009,0,0,0-2.018,0v3.767a7.176,7.176,0,0,0,2.2,5.179H2.492A2.5,2.5,0,0,0,0,138.322v2.414a2.5,2.5,0,0,0,2.492,2.492H66.381a2.5,2.5,0,0,0,2.492-2.492v-2.414A2.5,2.5,0,0,0,66.381,135.83Zm-8.393-19.82,1.156,1.816.017.027,1.624,2.551a.673.673,0,1,1-1.135.722l-1.656-2.6-.023-.036-1.117-1.755A8.147,8.147,0,0,0,57.988,116.01Zm6.984,6.166a3.968,3.968,0,1,1-7.772-1.14l.748,1.175a2.673,2.673,0,0,0,1.686,1.182,2.708,2.708,0,0,0,.589.065,2.691,2.691,0,0,0,2.264-4.136l-.653-1.027A3.975,3.975,0,0,1,64.972,122.177ZM48.965,93.121a4.1,4.1,0,1,1,5.475,3.867L54.393,97a4.109,4.109,0,0,1-2.651,0l-.047-.016A4.11,4.11,0,0,1,48.965,93.121Zm4.1,6.121a6.137,6.137,0,0,0,.673-.037v3.381c0,.013,0,.026,0,.039v1.93a.673.673,0,0,1-1.345,0v-1.93c0-.013,0-.026,0-.039V99.2A6.137,6.137,0,0,0,53.068,99.241Zm-2.69,4.79v.523a2.69,2.69,0,0,0,5.381,0v-.523a6.123,6.123,0,0,1-.68,11.282l-.069.024a6.123,6.123,0,0,1-7.877-4.309q-.008-.037-.018-.073a6.113,6.113,0,0,1-.167-1.423,6.178,6.178,0,0,1,.151-1.361,1.016,1.016,0,0,0,.032-.135A6.094,6.094,0,0,1,50.377,104.032Zm-5.422,4.851q-.025.322-.026.65,0,.352.029.7l-3.728.011v-1.345Zm-17.57-14.82a.808.808,0,0,1,.807-.807H40.547a.808.808,0,0,1,.807.807v.222a.808.808,0,0,1-.807.807H28.192a.808.808,0,0,1-.807-.807ZM9.82,105.967a.807.807,0,1,1,0-1.614h11.7a.807.807,0,1,1,0,1.614Zm7.668,24.684a1.816,1.816,0,1,1-3.632,0V118.343h3.632Zm49.368,10.085a.475.475,0,0,1-.474.474H2.492a.475.475,0,0,1-.474-.474v-2.414a.475.475,0,0,1,.474-.474H66.381a.475.475,0,0,1,.474.474Z" transform="translate(0 -76.239)"/>
        <path id="Trazado_901321" data-name="Trazado 901321" d="M69.1,106.206a4.1,4.1,0,1,0-4.1-4.1A4.107,4.107,0,0,0,69.1,106.206Zm0-6.188a2.085,2.085,0,1,1-2.085,2.085A2.087,2.087,0,0,1,69.1,100.018Z" transform="translate(-56.256 -85.759)"/>
        <path id="Trazado_901322" data-name="Trazado 901322" d="M287.623,63.246A2.623,2.623,0,1,0,285,60.623,2.626,2.626,0,0,0,287.623,63.246Zm0-3.228a.605.605,0,1,1-.605.605A.606.606,0,0,1,287.623,60.018Z" transform="translate(-246.662 -51.14)"/>
        <path id="Trazado_901323" data-name="Trazado 901323" d="M163.121,19.241A6.121,6.121,0,1,0,157,13.121,6.128,6.128,0,0,0,163.121,19.241Zm0-10.223a4.1,4.1,0,1,1-4.1,4.1A4.107,4.107,0,0,1,163.121,9.018Z" transform="translate(-135.881 -7)"/>
      </g>
    </g>
  </g>
</svg>
