<svg xmlns="http://www.w3.org/2000/svg" width="295" height="90" viewBox="0 0 295 90">
  <g id="Grupo_1109823" data-name="Grupo 1109823" transform="translate(-180.051 -3475)">
    <rect id="Rectángulo_402376" data-name="Rectángulo 402376" width="295" height="90" rx="5" transform="translate(180.051 3475)" fill="#fdecd4"/>
    <g id="Grupo_1109846" data-name="Grupo 1109846" transform="translate(194.774 3490)">
      <path id="Trazado_901324" data-name="Trazado 901324" d="M58.225,90H56.347a1.878,1.878,0,0,0-1.812,1.409H42.659a.939.939,0,0,0-.765.394,2.4,2.4,0,0,1-3.869,0,.939.939,0,0,0-.761-.394h-3.1a.939.939,0,0,0-.826,1.409,2.122,2.122,0,0,1,.282,1.066c0,1.146-1.451,1.878-2.728,1.794a3,3,0,0,1-3.057-2.639,5.123,5.123,0,0,0-.08-.859.942.942,0,1,0-1.878.136,5.057,5.057,0,0,0,.061.878c0,.681-.169,2.094-1.324,2.118h-.075c-1.108,0-1.381-.423-1.545-1.305a.939.939,0,0,0-1.474-.587,2.39,2.39,0,0,1-1.409.47,2.306,2.306,0,0,1-2.268-1.756.939.939,0,0,0-.9-.723H5.569A1.878,1.878,0,0,0,3.756,90H1.878A1.878,1.878,0,0,0,0,91.878v14.087a1.878,1.878,0,0,0,1.878,1.878H3.756a1.878,1.878,0,0,0,1.812-1.409H54.535a1.878,1.878,0,0,0,1.812,1.409h1.878a1.878,1.878,0,0,0,1.878-1.878V91.878A1.878,1.878,0,0,0,58.225,90ZM3.756,105.965H1.878V91.878H3.756Zm50.712-1.409H5.635V93.287H16.28a4.2,4.2,0,0,0,3.86,2.46,4.282,4.282,0,0,0,1.409-.239,3.067,3.067,0,0,0,3.019,1.676h.113a2.911,2.911,0,0,0,2.446-1.329,5,5,0,0,0,3.639,1.7c2.221.164,4.743-1.263,4.743-3.667a4.013,4.013,0,0,0-.042-.6h1.352a4.287,4.287,0,0,0,6.287,0H54.469Zm3.756,1.409H56.347V91.878h1.878Z" transform="translate(0 -47.74)" fill="#fe783d"/>
      <path id="Trazado_901325" data-name="Trazado 901325" d="M57.267,56.33a3.135,3.135,0,0,0,3.038-1.817c.986-2.512-1.409-4.419-2.348-6.5a10.246,10.246,0,0,1-.587-1.611c-.07-.268-.15-.4-.225-.4s-.155.131-.23.394a14.448,14.448,0,0,1-.761,2.047c-.784,1.723-2.348,3.287-2.179,5.273A3.076,3.076,0,0,0,57.267,56.33Zm-.376-5.358.31-.512.286.427c.972,1.451,1.371,2.169,1.066,2.935-.164.465-.789.629-1.287.629-.056,0-1.343,0-1.409-.892a5.064,5.064,0,0,1,1.047-2.587Z" transform="translate(-28.624 -24.4)" fill="#fe783d"/>
      <path id="Trazado_901326" data-name="Trazado 901326" d="M44.267,77.33a3.135,3.135,0,0,0,3.038-1.817c.986-2.512-1.409-4.419-2.348-6.5a10.246,10.246,0,0,1-.587-1.611c-.07-.268-.15-.4-.225-.4s-.155.131-.23.394a14.447,14.447,0,0,1-.761,2.047c-.784,1.723-2.348,3.287-2.179,5.273A3.076,3.076,0,0,0,44.267,77.33Zm-.376-5.358.31-.512.286.427c.972,1.451,1.371,2.169,1.066,2.935-.164.465-.789.629-1.287.629-.056,0-1.343,0-1.409-.892a5.064,5.064,0,0,1,1.047-2.587Z" transform="translate(-21.728 -35.54)" fill="#fe783d"/>
      <path id="Trazado_901327" data-name="Trazado 901327" d="M32.005,62.259a.939.939,0,0,0,1.5-1.127L30.69,57.376a.939.939,0,0,0-1.5,1.127Z" transform="translate(-15.383 -30.235)" fill="#fe783d"/>
      <path id="Trazado_901328" data-name="Trazado 901328" d="M28.005,76.259a.939.939,0,1,0,1.5-1.127L26.69,71.376a.939.939,0,0,0-1.5,1.127Z" transform="translate(-13.261 -37.661)" fill="#fe783d"/>
      <path id="Trazado_901329" data-name="Trazado 901329" d="M73.69,62.259,76.508,58.5a.939.939,0,0,0-1.5-1.127l-2.817,3.756a.939.939,0,1,0,1.5,1.127Z" transform="translate(-38.192 -30.235)" fill="#fe783d"/>
      <path id="Trazado_901330" data-name="Trazado 901330" d="M76.376,76.447a.939.939,0,0,0,1.315-.188L80.508,72.5a.939.939,0,0,0-1.5-1.127l-2.817,3.756A.939.939,0,0,0,76.376,76.447Z" transform="translate(-40.313 -37.661)" fill="#fe783d"/>
      <path id="Trazado_901331" data-name="Trazado 901331" d="M67.32,74.188a.939.939,0,0,0-1.315.188l-2.817,3.756a.939.939,0,1,0,1.5,1.127L67.508,75.5A.939.939,0,0,0,67.32,74.188Z" transform="translate(-33.418 -39.253)" fill="#fe783d"/>
      <path id="Trazado_901332" data-name="Trazado 901332" d="M59.882,20.191a1.47,1.47,0,0,0,.47-.08,1.686,1.686,0,0,0,1.028-1.085c4.846-1.784,18.67-6.874,25.168-9.194A4.5,4.5,0,0,0,89.22,3.888l-.338-.845A4.879,4.879,0,0,0,84.388,0a4.7,4.7,0,0,0-1.565.268L58.06,9.142a1.747,1.747,0,0,0-.817-.221,1.47,1.47,0,0,0-.47.08c-1.737.606-1.409,3.8-.578,6.363C56.435,16.172,57.83,20.191,59.882,20.191ZM85.834,2.268a2.939,2.939,0,0,1,1.305,1.489l.338.845a2.653,2.653,0,0,1-.038,2.09A2.62,2.62,0,0,1,85.914,8.1c-1.878.667-4.343,1.564-7.043,2.545Zm-2.385-.23a.6.6,0,0,0,.174-.047l-8.255,9.9c-5.245,1.916-10.673,3.916-13.772,5.057a13.89,13.89,0,0,0-.648-3.2A14.218,14.218,0,0,0,59.5,10.617Zm-26.018,8.95a8.983,8.983,0,0,1,1.728,3.334,9.053,9.053,0,0,1,.535,3.8,8.978,8.978,0,0,1-1.733-3.334A9.058,9.058,0,0,1,57.431,10.988Z" transform="translate(-29.45)" fill="#fe783d"/>
      <path id="Trazado_901333" data-name="Trazado 901333" d="M34,113.939a.939.939,0,0,0,.939.939h26.3a.939.939,0,1,0,0-1.878h-26.3A.939.939,0,0,0,34,113.939Z" transform="translate(-18.035 -59.94)" fill="#fe783d"/>
      <circle id="Elipse_11532" data-name="Elipse 11532" cx="1.006" cy="1.006" r="1.006" transform="translate(12.067 52.962)" fill="#fe783d"/>
      <ellipse id="Elipse_11533" data-name="Elipse 11533" cx="0.67" cy="1.006" rx="0.67" ry="1.006" transform="translate(46.258 52.962)" fill="#fe783d"/>
    </g>
    <g id="Grupo_1109847" data-name="Grupo 1109847" transform="translate(220.28 3422.25)">
      <path id="Trazado_901334" data-name="Trazado 901334" d="M324.42,269.127A4.132,4.132,0,1,0,328.552,265,4.132,4.132,0,0,0,324.42,269.127Zm4.132-1.942a1.942,1.942,0,1,1-1.941,1.942A1.942,1.942,0,0,1,328.552,267.184Z" transform="translate(-215.565 -165.835)" fill="#fe783d"/>
      <path id="Trazado_901335" data-name="Trazado 901335" d="M254.245,317.81a4.936,4.936,0,1,0,4.938,4.937A4.936,4.936,0,0,0,254.245,317.81Zm0,7.685a2.747,2.747,0,1,1,2.747-2.747,2.747,2.747,0,0,1-2.747,2.747Z" transform="translate(-152.736 -210.011)" fill="#fe783d"/>
      <path id="Trazado_901336" data-name="Trazado 901336" d="M301.892,134.9a5.6,5.6,0,1,0-5.6-5.6A5.6,5.6,0,0,0,301.892,134.9Zm0-9.014a3.412,3.412,0,1,1-3.411,3.417A3.412,3.412,0,0,1,301.892,125.883Z" transform="translate(-192.034 -47.63)" fill="#fe783d"/>
      <path id="Trazado_901337" data-name="Trazado 901337" d="M207.161,75.252A4.251,4.251,0,1,0,202.91,71a4.251,4.251,0,0,0,4.251,4.251Zm0-6.3a2.057,2.057,0,1,1-2.057,2.057A2.057,2.057,0,0,1,207.161,68.949Z" transform="translate(-113.922)" fill="#fe783d"/>
      <path id="Trazado_901338" data-name="Trazado 901338" d="M143.542,145.994a4.042,4.042,0,1,0-4.042-4.042A4.042,4.042,0,0,0,143.542,145.994Zm0-5.886a.768.768,0,1,1,0-.008Z" transform="translate(-60.88 -59.525)" fill="#fe783d"/>
      <path id="Trazado_901339" data-name="Trazado 901339" d="M127.522,203.82H109.046a1.094,1.094,0,0,0-.894,1.725,3.559,3.559,0,1,1-5.809,0,1.094,1.094,0,0,0-.9-1.725H87.632a1.1,1.1,0,0,0-.968,1.607,3.6,3.6,0,0,1,0,3.51,1.094,1.094,0,0,0,.9,1.609,6.463,6.463,0,1,1-5.044,1.962,1.094,1.094,0,0,0-.43-1.792,3.772,3.772,0,0,1-2.52-3.54,3.715,3.715,0,0,1,.455-1.748,1.094,1.094,0,0,0-.968-1.607H67.814a1.092,1.092,0,0,0-1.094,1.094v37.279a1.094,1.094,0,0,0,1.094,1.1h59.709a1.094,1.094,0,0,0,1.094-1.1V204.915a1.092,1.092,0,0,0-1.094-1.1Zm-1.1,37.279H68.909v-35.09H77.5a5.7,5.7,0,0,0-.121,1.166,5.96,5.96,0,0,0,2.641,4.933,8.668,8.668,0,1,0,9.112-3.538,5.688,5.688,0,0,0,.052-2.56H99.728a5.685,5.685,0,0,0-.222,1.578,5.748,5.748,0,1,0,11.5,0,5.686,5.686,0,0,0-.223-1.578h15.648Z" transform="translate(0 -114.658)" fill="#fe783d"/>
    </g>
    <g id="Grupo_1109848" data-name="Grupo 1109848" transform="translate(383.339 3476)">
      <path id="Trazado_901340" data-name="Trazado 901340" d="M67.147,80.323H60l8.021-11.651a1.066,1.066,0,1,0-1.755-1.21L58.925,78.129,51.608,70.7a1.065,1.065,0,0,0,.156-2.076l-3.5-1.043a1.066,1.066,0,0,0-1.3,1.4l1.253,3.352a1.062,1.062,0,0,0,1.994-.007l7.882,8H36.556l8.021-11.651a1.066,1.066,0,1,0-1.755-1.21L35.477,78.129,28.16,70.7a1.065,1.065,0,0,0,.156-2.076l-3.5-1.043a1.066,1.066,0,0,0-1.3,1.4l1.253,3.352a1.062,1.062,0,0,0,1.994-.007l7.882,8H13.107l8.021-11.651a1.066,1.066,0,1,0-1.755-1.21L12.029,78.129,4.712,70.7a1.065,1.065,0,0,0,.156-2.076l-3.5-1.043a1.066,1.066,0,0,0-1.3,1.4L1.321,72.33a1.062,1.062,0,0,0,1.994-.007l7.882,8H1.066a1.066,1.066,0,0,0,0,2.132H4.888L1.378,86.5A1.066,1.066,0,0,0,2.885,88L7.9,82.454h5.512L9.9,86.5A1.066,1.066,0,0,0,11.412,88l5.017-5.55h5.512L18.431,86.5A1.066,1.066,0,0,0,19.938,88l5.017-5.55h5.512L26.958,86.5A1.066,1.066,0,0,0,28.465,88l5.017-5.55h4.446L34.419,86.5A1.066,1.066,0,0,0,35.926,88l5.017-5.55h5.512L42.945,86.5A1.066,1.066,0,0,0,44.452,88l5.017-5.55h5.512L51.472,86.5A1.066,1.066,0,1,0,52.979,88L58,82.454h5.512L60,86.5A1.066,1.066,0,0,0,61.505,88l5.017-5.55h.625a1.066,1.066,0,0,0,0-2.132Z" transform="translate(0 -21.486)" fill="#fe783d"/>
      <path id="Trazado_901341" data-name="Trazado 901341" d="M12.527,44.448c4.7,0,8.527-4.124,8.527-9.193,0-4.746-6.927-12.976-7.717-13.9a1.1,1.1,0,0,0-1.619,0C10.927,22.278,4,30.509,4,35.255,4,40.324,7.825,44.448,12.527,44.448Zm0-20.727c2.327,2.891,6.395,8.563,6.395,11.533,0,3.893-2.869,7.06-6.395,7.06s-6.395-3.167-6.395-7.06c0-2.968,4.069-8.641,6.4-11.533Z" transform="translate(-1.868)" fill="#fe783d"/>
      <path id="Trazado_901342" data-name="Trazado 901342" d="M14.132,50.384a1.067,1.067,0,0,0,.711-1.861,2.6,2.6,0,0,1-.39-3.067,1.066,1.066,0,1,0-1.971-.811,4.609,4.609,0,0,0,.939,5.466A1.059,1.059,0,0,0,14.132,50.384Z" transform="translate(-5.605 -10.736)" fill="#fe783d"/>
      <path id="Trazado_901343" data-name="Trazado 901343" d="M100.527,44.448c4.7,0,8.527-4.124,8.527-9.193,0-4.746-6.927-12.976-7.717-13.9a1.1,1.1,0,0,0-1.618,0c-.79.923-7.717,9.154-7.717,13.9C92,40.324,95.825,44.448,100.527,44.448Zm0-20.727c2.327,2.891,6.395,8.563,6.395,11.533,0,3.893-2.869,7.06-6.395,7.06s-6.395-3.167-6.395-7.06C94.132,32.287,98.2,26.614,100.527,23.721Z" transform="translate(-42.972 0)" fill="#fe783d"/>
      <path id="Trazado_901344" data-name="Trazado 901344" d="M102.131,50.384a1.067,1.067,0,0,0,.711-1.861,2.6,2.6,0,0,1-.389-3.067,1.066,1.066,0,0,0-1.971-.811,4.608,4.608,0,0,0,.939,5.466A1.058,1.058,0,0,0,102.131,50.384Z" transform="translate(-46.709 -10.736)" fill="#fe783d"/>
      <path id="Trazado_901345" data-name="Trazado 901345" d="M56.527,44.448c4.7,0,8.527-4.124,8.527-9.193,0-4.746-6.927-12.976-7.717-13.9a1.1,1.1,0,0,0-1.619,0c-.79.923-7.717,9.154-7.717,13.9C48,40.324,51.825,44.448,56.527,44.448Zm0-20.727c2.327,2.891,6.395,8.563,6.395,11.533,0,3.893-2.869,7.06-6.395,7.06s-6.395-3.167-6.395-7.06c0-2.968,4.069-8.641,6.4-11.533Z" transform="translate(-22.42 0)" fill="#fe783d"/>
      <path id="Trazado_901346" data-name="Trazado 901346" d="M58.132,50.384a1.067,1.067,0,0,0,.711-1.861,2.6,2.6,0,0,1-.39-3.067,1.066,1.066,0,1,0-1.971-.811,4.609,4.609,0,0,0,.939,5.466A1.059,1.059,0,0,0,58.132,50.384Z" transform="translate(-26.157 -10.736)" fill="#fe783d"/>
    </g>
  </g>
</svg>
