<svg xmlns="http://www.w3.org/2000/svg" xmlns:xlink="http://www.w3.org/1999/xlink" width="190" height="190" viewBox="0 0 190 190">
  <defs>
    <clipPath id="clip-path">
      <path id="Trazado_901437" data-name="Trazado 901437" d="M1631.018,1199.377V1185.4h-13.729v14.214h.015a3.461,3.461,0,0,0,2.03,2.8,10.754,10.754,0,0,0,9.73.02C1630.514,1201.6,1631.145,1200.477,1631.018,1199.377Z" transform="translate(-1617.289 -1185.4)"/>
    </clipPath>
  </defs>
  <g id="Grupo_1109937" data-name="Grupo 1109937" transform="translate(-209.051 -5043)">
    <circle id="Elipse_11563" data-name="Elipse 11563" cx="95" cy="95" r="95" transform="translate(209.051 5043)" fill="#fdecd4"/>
    <g id="_375933813_3b4ebe68-5ea8-458c-aaa3-43c0c5034505" data-name="375933813_3b4ebe68-5ea8-458c-aaa3-43c0c5034505" transform="translate(47.683 5019.189)">
      <g id="Grupo_1109860" data-name="Grupo 1109860" transform="translate(217.802 24.471)">
        <path id="Trazado_901347" data-name="Trazado 901347" d="M1159.08,481.948l7.7-4.425-7.681-4.459Z" transform="translate(-1105.13 -429.682)" fill="#29abe2"/>
        <g id="Grupo_1109858" data-name="Grupo 1109858" transform="translate(0 0)">
          <path id="Trazado_901348" data-name="Trazado 901348" d="M601.833,42.265l73.884,43.382.632-.379V67.485L655.765,49.68,622.379,30.4l-20.545-5.931-.631.379Z" transform="translate(-601.202 -24.471)" fill="#5f9ab3"/>
          <path id="Trazado_901349" data-name="Trazado 901349" d="M814.7,80.769l33.386,19.264V74.414L814.721,55.137l-.631.379Z" transform="translate(-793.502 -52.171)" fill="#5f9ab3"/>
        </g>
        <g id="Grupo_1109859" data-name="Grupo 1109859" transform="translate(0 0.379)">
          <path id="Trazado_901350" data-name="Trazado 901350" d="M601.2,46.182l74.516,43V71.4L655.134,53.6,621.747,34.319,601.2,28.388Z" transform="translate(-601.202 -28.388)" fill="#7fcdee"/>
          <path id="Trazado_901351" data-name="Trazado 901351" d="M813.844,88.711l33.386,19.264V78.331L813.868,59.054Z" transform="translate(-793.28 -56.088)" fill="#7fcdee"/>
        </g>
        <path id="Trazado_901352" data-name="Trazado 901352" d="M1371.74,469.637l.631-.379v17.784l-.631.379Z" transform="translate(-1297.224 -426.244)" fill="#29abe2"/>
        <path id="Trazado_901353" data-name="Trazado 901353" d="M821.006,76.21l3.189-1.829L790.851,55.1l-3.207,1.829Z" transform="translate(-769.614 -52.142)" fill="#54bce8"/>
      </g>
      <g id="Grupo_1109861" data-name="Grupo 1109861" transform="translate(176.756 130.179)">
        <path id="Trazado_901354" data-name="Trazado 901354" d="M176.756,1154.586l56.5-32.6-7.7-4.43-43.635,25.175Z" transform="translate(-176.756 -1117.56)" fill="#54bce8"/>
        <path id="Trazado_901355" data-name="Trazado 901355" d="M229.628,1185l56.5-32.637-7.7-4.39-43.635,25.177Z" transform="translate(-224.515 -1145.029)" fill="#1f80aa"/>
        <path id="Trazado_901356" data-name="Trazado 901356" d="M181.915,1377.89l5.113,2.942-5.16,11.85-5.113-2.942Z" transform="translate(-176.756 -1352.715)" fill="#29abe2"/>
      </g>
      <path id="Trazado_901357" data-name="Trazado 901357" d="M378.194,1352.84l-.026,8.9,69.343,40.048v-8.921Z" transform="translate(-181.934 -1199.908)" fill="#7fcdee"/>
      <g id="Grupo_1109862" data-name="Grupo 1109862" transform="translate(251.221 173.099)">
        <path id="Trazado_901358" data-name="Trazado 901358" d="M946.769,1598.475l56.5-32.6-7.717-4.5-43.646,25.208Z" transform="translate(-946.769 -1561.38)" fill="#54bce8"/>
        <path id="Trazado_901359" data-name="Trazado 901359" d="M999.641,1629.537l56.5-32.6-7.7-4.431-43.636,25.176Z" transform="translate(-994.528 -1589.5)" fill="#1f80aa"/>
        <path id="Trazado_901360" data-name="Trazado 901360" d="M951.905,1822.05l5.136,2.979-5.159,11.85-5.113-2.942Z" transform="translate(-946.769 -1796.841)" fill="#29abe2"/>
        <path id="Trazado_901361" data-name="Trazado 901361" d="M1070.633,1609.277l-52.543,30.271,1.208-2.774,2.922-6.711,42.209-24.354,4.4,2.529Z" transform="translate(-1011.193 -1601.423)" fill="#095270"/>
        <path id="Trazado_901362" data-name="Trazado 901362" d="M1080.11,1608.239l-49.53,28.536,2.922-6.711,42.209-24.354Z" transform="translate(-1022.475 -1601.423)" fill="#073e54"/>
      </g>
      <g id="Grupo_1109864" data-name="Grupo 1109864" transform="translate(194.745 27.818)">
        <path id="Trazado_901363" data-name="Trazado 901363" d="M442.2,227.922l2.579,1.447,20.558-11.87V104.834l-23.114,13.343Z" transform="translate(-434.518 -100.41)" fill="#1f80aa"/>
        <g id="Grupo_1109863" data-name="Grupo 1109863" transform="translate(8.497 5.684)">
          <path id="Trazado_901364" data-name="Trazado 901364" d="M472.328,117.861v110.7l-.268.154V118.324L450.9,130.479V240.944l-.268.156V130.323l.067-.039Z" transform="translate(-450.633 -117.861)" fill="#095270"/>
        </g>
        <path id="Trazado_901365" data-name="Trazado 901365" d="M370.454,311.129l-7.681-4.435V196.949l7.7,4.435Z" transform="translate(-362.773 -183.617)" fill="#29abe2"/>
        <path id="Trazado_901366" data-name="Trazado 901366" d="M362.773,72.416l7.7,4.435,23.114-13.343-7.7-4.424Z" transform="translate(-362.773 -59.084)" fill="#54bce8"/>
      </g>
      <path id="Trazado_901367" data-name="Trazado 901367" d="M820.886,108.921l.018-15.627L787.542,74.017V89.688Z" transform="translate(-551.719 -44.755)" fill="#7fcdee"/>
      <g id="Grupo_1109865" data-name="Grupo 1109865" transform="translate(261.517 66.383)">
        <path id="Trazado_901368" data-name="Trazado 901368" d="M1155.807,503.617V613.335l-.627.363-.268.154-21.158,12.227-.269.156-.815.471.022-109.744Z" transform="translate(-1124.989 -499.193)" fill="#1f80aa"/>
        <path id="Trazado_901369" data-name="Trazado 901369" d="M1060.921,709.913l-7.681-4.435V595.734l7.7,4.435Z" transform="translate(-1053.24 -582.402)" fill="#29abe2"/>
        <path id="Trazado_901370" data-name="Trazado 901370" d="M1053.24,471.2l7.7,4.435,23.114-13.343-7.705-4.424Z" transform="translate(-1053.24 -457.869)" fill="#54bce8"/>
      </g>
      <path id="Trazado_901371" data-name="Trazado 901371" d="M1132.458,256.27l3.189-1.829v2.994l-.595.343.595.573v11.663l-3.208,1.883Z" transform="translate(-863.264 -207.731)" fill="#29abe2"/>
      <path id="Trazado_901372" data-name="Trazado 901372" d="M913.478,1414.033l7.7-4.424-7.682-4.459Z" transform="translate(-665.477 -1247.159)" fill="#b1bffe"/>
      <path id="Trazado_901373" data-name="Trazado 901373" d="M435.693,879.067l23.784-13.712v-.722l35.936,20.851V913.54Z" transform="translate(-233.896 -758.913)" fill="#636780"/>
      <path id="Trazado_901374" data-name="Trazado 901374" d="M606.029,1048.253l.031-5.914-30.837-17.819v5.956Z" transform="translate(-359.933 -903.339)" fill="#fbb03b"/>
      <path id="Trazado_901375" data-name="Trazado 901375" d="M681.636,864.633v.722l35.936,20.71v-.721Z" transform="translate(-456.055 -758.913)" fill="#b1bffe"/>
      <path id="Trazado_901376" data-name="Trazado 901376" d="M893.533,1125.5l15.445-8.913v5.924l-15.421,8.9Z" transform="translate(-647.46 -986.504)" fill="#f7931e"/>
      <path id="Trazado_901377" data-name="Trazado 901377" d="M575.223,927.9l17.964-10.344,28.263,16.314V936.8l-15.412,8.91Z" transform="translate(-359.933 -806.719)" fill="#fcee21"/>
      <g id="Grupo_1109866" data-name="Grupo 1109866" transform="translate(225.563 106.371)">
        <path id="Trazado_901378" data-name="Trazado 901378" d="M681.449,886.176l.037-8.851,2.591-1.49,2.517,1.461,2.56-4.449,2.566-1.479.02,8.929-8.6,6.867Z" transform="translate(-681.449 -871.368)" fill="#daddff"/>
        <path id="Trazado_901379" data-name="Trazado 901379" d="M698.947,896.3v-8.887l2.577-1.491,2.568,1.481,2.56-4.449,2.562-1.472.023,8.886Z" transform="translate(-697.255 -880.506)" fill="#b1bffe"/>
        <path id="Trazado_901380" data-name="Trazado 901380" d="M763.7,871.368l1.689.978-2.562,1.472-1.692-.971Z" transform="translate(-753.425 -871.368)" fill="#e6edf7"/>
        <path id="Trazado_901381" data-name="Trazado 901381" d="M684.423,917.557l1.641.951L683.486,920l-1.655-.953Z" transform="translate(-681.794 -913.09)" fill="#e6edf7"/>
      </g>
      <g id="Grupo_1109867" data-name="Grupo 1109867" transform="translate(225.933 72.978)">
        <path id="Trazado_901382" data-name="Trazado 901382" d="M797.457,574.016V545.061h-9.993v29.128h.011a2.519,2.519,0,0,0,1.478,2.037,7.828,7.828,0,0,0,7.082.015A2.342,2.342,0,0,0,797.457,574.016Z" transform="translate(-777.582 -543.223)" fill="#383a49"/>
        <path id="Trazado_901383" data-name="Trazado 901383" d="M797.457,560.143V531.188h-9.993v29.128h.011a2.519,2.519,0,0,0,1.478,2.037,7.827,7.827,0,0,0,7.082.015A2.342,2.342,0,0,0,797.457,560.143Z" transform="translate(-777.582 -530.692)" fill="#daddff"/>
        <path id="Trazado_901384" data-name="Trazado 901384" d="M758.8,544.273V529.323h-19.24v15.282h.021c.018,1.418.965,2.836,2.845,3.922a15.07,15.07,0,0,0,13.636.029C758.092,547.383,758.978,545.814,758.8,544.273Z" transform="translate(-734.309 -529.007)" fill="#c6ceff"/>
        <path id="Trazado_901385" data-name="Trazado 901385" d="M715,530.377V526.06H685.275v4.83h.032c.028,2.191,1.491,4.382,4.4,6.059,5.839,3.371,15.271,3.391,21.068.044C713.909,535.182,715.278,532.757,715,530.377Z" transform="translate(-685.275 -526.06)" fill="#b1bffe"/>
      </g>
      <path id="Trazado_901386" data-name="Trazado 901386" d="M681.577,171.7l10.224-5.927,33.307,19.291-16.373,9.51-1.5-1.287.046-6.714Z" transform="translate(-456.002 -127.633)" fill="#636780"/>
      <g id="Grupo_1109870" data-name="Grupo 1109870" transform="translate(196.351 115.375)">
        <g id="Grupo_1109868" data-name="Grupo 1109868" transform="translate(67.6 39.029)">
          <path id="Trazado_901387" data-name="Trazado 901387" d="M1080.8,1370.292a1.119,1.119,0,0,1-.093.476c-.18.39-.606.491-1.1.2a2.636,2.636,0,0,1-1.2-2.062c0-.562.3-.875.718-.842a1.142,1.142,0,0,1,.479.161A2.635,2.635,0,0,1,1080.8,1370.292Z" transform="translate(-1078.411 -1368.066)" fill="#959bbf"/>
          <path id="Trazado_901388" data-name="Trazado 901388" d="M1086.631,1370.312a1.123,1.123,0,0,1-.093.476,1.14,1.14,0,0,1-.479-.161,2.637,2.637,0,0,1-1.2-2.063,1.121,1.121,0,0,1,.094-.476,1.147,1.147,0,0,1,.479.161A2.636,2.636,0,0,1,1086.631,1370.312Z" transform="translate(-1084.237 -1368.086)" fill="#323440"/>
        </g>
        <g id="Grupo_1109869" data-name="Grupo 1109869">
          <path id="Trazado_901389" data-name="Trazado 901389" d="M381.775,966.7a1.12,1.12,0,0,1-.093.476c-.18.391-.606.491-1.1.2a2.637,2.637,0,0,1-1.2-2.062c0-.562.3-.875.718-.843a1.144,1.144,0,0,1,.479.161A2.636,2.636,0,0,1,381.775,966.7Z" transform="translate(-379.381 -964.477)" fill="#959bbf"/>
          <path id="Trazado_901390" data-name="Trazado 901390" d="M387.6,966.724a1.12,1.12,0,0,1-.093.476,1.142,1.142,0,0,1-.479-.161,2.638,2.638,0,0,1-1.2-2.063,1.12,1.12,0,0,1,.094-.476,1.142,1.142,0,0,1,.479.161A2.636,2.636,0,0,1,387.6,966.724Z" transform="translate(-385.208 -964.497)" fill="#323440"/>
        </g>
      </g>
      <g id="Grupo_1109871" data-name="Grupo 1109871" transform="translate(229.705 38.135)">
        <path id="Trazado_901391" data-name="Trazado 901391" d="M745,275.471a8.4,8.4,0,0,1-1.711,1.276c-4.325,2.5-11.365,2.482-15.722-.034a8.576,8.576,0,0,1-1.807-1.363,4.2,4.2,0,0,1,0-6.4,8.447,8.447,0,0,1,1.749-1.315c4.327-2.5,11.366-2.483,15.724.034A8.619,8.619,0,0,1,745,268.993,4.216,4.216,0,0,1,745,275.471Z" transform="translate(-724.278 -256.101)" fill="#323440"/>
        <path id="Trazado_901392" data-name="Trazado 901392" d="M758.8,224.117v13.727a8.4,8.4,0,0,1-1.711,1.276c-4.325,2.5-11.365,2.482-15.722-.034a8.575,8.575,0,0,1-1.807-1.363V224.117Z" transform="translate(-738.081 -218.474)" fill="#c6ceff"/>
        <ellipse id="Elipse_11534" data-name="Elipse 11534" cx="5.563" cy="9.637" rx="5.563" ry="9.637" transform="matrix(0.006, -1, 1, 0.006, 1.447, 11.127)" fill="#d1d8ff"/>
      </g>
      <g id="Grupo_1109874" data-name="Grupo 1109874" transform="translate(194.051 115.48)">
        <g id="Grupo_1109873" data-name="Grupo 1109873" transform="translate(0.134)">
          <g id="Grupo_1109872" data-name="Grupo 1109872">
            <path id="Trazado_901393" data-name="Trazado 901393" d="M435.96,1008.023,362.583,965.64c-.32-.184-.581-.034-.581.335v16.453a1.289,1.289,0,0,0,.581,1.006l2.205,1.273,0-1.305h0c0-.031,0-.063,0-.093,0-.818.578-1.147,1.292-.735a2.845,2.845,0,0,1,1.292,2.227c0,.02,0,.037,0,.056h0l-.006,1.333,65.029,37.616,0-1.288h0c0-.031,0-.063,0-.093,0-.818.579-1.147,1.292-.735a2.845,2.845,0,0,1,1.292,2.227c0,.02,0,.037,0,.056h0l-.006,1.315.976.563c.32.184.581.034.581-.335l.023-16.49A1.291,1.291,0,0,0,435.96,1008.023Z" transform="translate(-361.517 -965.561)" fill="#b1bffe"/>
            <path id="Trazado_901394" data-name="Trazado 901394" d="M357.611,966.179l-.625.463.7.435Z" transform="translate(-356.986 -966.119)" fill="#b1bffe"/>
          </g>
          <path id="Trazado_901395" data-name="Trazado 901395" d="M1124.41,1586.454l.6-.357-.618-.358Z" transform="translate(-1050.178 -1525.765)" fill="#b1bffe"/>
        </g>
        <path id="Trazado_901396" data-name="Trazado 901396" d="M429.535,1012.728l-73.354-42.343c-.319-.184-.581-.033-.581.335v16.453a1.289,1.289,0,0,0,.581,1.006l2.2,1.272,0-1.305h0c0-.031,0-.063,0-.093,0-.818.578-1.147,1.292-.735a2.845,2.845,0,0,1,1.292,2.227c0,.019,0,.037,0,.056h0l-.006,1.333,15.21,8.778.022,2.246,33.361,19.283v-2.263l16.435,9.485,0-1.288h0c0-.031,0-.063,0-.093,0-.818.578-1.147,1.292-.735a2.845,2.845,0,0,1,1.292,2.227c0,.02,0,.037,0,.056h0l-.006,1.316.976.564c.319.184.581.033.581-.336v-16.442A1.289,1.289,0,0,0,429.535,1012.728Z" transform="translate(-355.6 -969.847)" fill="#daddff"/>
      </g>
      <g id="Grupo_1109876" data-name="Grupo 1109876" transform="translate(261.36 171.873)">
        <path id="Trazado_901397" data-name="Trazado 901397" d="M1084,1551.469a2.636,2.636,0,0,0-1.2-2.063.833.833,0,0,0-.863-.075h0l-.629.371.3.481a2.656,2.656,0,0,0,1.193,1.969c.017.01.035.018.052.027l.239.384.547-.32.02-.011.022-.013h0A.85.85,0,0,0,1084,1551.469Z" transform="translate(-1078.44 -1549.19)" fill="#949ac2"/>
        <ellipse id="Elipse_11535" data-name="Elipse 11535" cx="0.974" cy="1.686" rx="0.974" ry="1.686" transform="translate(2.075 0.984) rotate(-30.357)" fill="#b1bffe"/>
        <g id="Grupo_1109875" data-name="Grupo 1109875" transform="translate(0 1.111)">
          <path id="Trazado_901398" data-name="Trazado 901398" d="M1058.736,1561.487a1.54,1.54,0,0,0-.7-1.205.481.481,0,0,0-.508-.039v0l-2.678,1.519h0a.477.477,0,0,0-.215.453,1.54,1.54,0,0,0,.7,1.205.529.529,0,0,0,.434.073l0,0,.021-.012a.326.326,0,0,0,.067-.038l2.671-1.508h0A.484.484,0,0,0,1058.736,1561.487Z" transform="translate(-1054.342 -1560.187)" fill="#959bbf"/>
          <ellipse id="Elipse_11536" data-name="Elipse 11536" cx="0.569" cy="0.985" rx="0.569" ry="0.985" transform="translate(0 1.873) rotate(-30.357)" fill="#e6edf7"/>
        </g>
      </g>
      <g id="Grupo_1109877" data-name="Grupo 1109877" transform="translate(263.951 185.664)">
        <path id="Trazado_901399" data-name="Trazado 901399" d="M1080.8,1693.532a1.12,1.12,0,0,1-.093.476c-.18.39-.606.491-1.1.2a2.637,2.637,0,0,1-1.2-2.062c0-.562.3-.875.718-.843a1.145,1.145,0,0,1,.479.161A2.635,2.635,0,0,1,1080.8,1693.532Z" transform="translate(-1078.411 -1691.306)" fill="#959bbf"/>
        <path id="Trazado_901400" data-name="Trazado 901400" d="M1086.631,1693.552a1.123,1.123,0,0,1-.093.476,1.145,1.145,0,0,1-.479-.161,2.638,2.638,0,0,1-1.2-2.063,1.12,1.12,0,0,1,.094-.476,1.14,1.14,0,0,1,.479.161A2.635,2.635,0,0,1,1086.631,1693.552Z" transform="translate(-1084.237 -1691.326)" fill="#323440"/>
      </g>
      <g id="Grupo_1109879" data-name="Grupo 1109879" transform="translate(193.758 132.839)">
        <path id="Trazado_901401" data-name="Trazado 901401" d="M384.968,1147.88a2.636,2.636,0,0,0-1.2-2.063.834.834,0,0,0-.863-.075h0l-.629.371.3.48a2.655,2.655,0,0,0,1.193,1.969l.052.027.239.384.546-.319.02-.012.022-.013v0A.849.849,0,0,0,384.968,1147.88Z" transform="translate(-379.406 -1145.596)" fill="#949ac2"/>
        <ellipse id="Elipse_11537" data-name="Elipse 11537" cx="0.974" cy="1.686" rx="0.974" ry="1.686" transform="translate(2.075 0.984) rotate(-30.357)" fill="#b1bffe"/>
        <g id="Grupo_1109878" data-name="Grupo 1109878" transform="translate(0 1.115)">
          <path id="Trazado_901402" data-name="Trazado 901402" d="M359.7,1157.9a1.54,1.54,0,0,0-.7-1.205.481.481,0,0,0-.508-.039v0l-2.678,1.519h0a.476.476,0,0,0-.215.452,1.539,1.539,0,0,0,.7,1.2.529.529,0,0,0,.434.073l0,0,.021-.012a.315.315,0,0,0,.067-.038l2.671-1.508h0A.483.483,0,0,0,359.7,1157.9Z" transform="translate(-355.306 -1156.597)" fill="#959bbf"/>
          <ellipse id="Elipse_11538" data-name="Elipse 11538" cx="0.569" cy="0.985" rx="0.569" ry="0.985" transform="translate(0 1.869) rotate(-30.357)" fill="#e6edf7"/>
        </g>
      </g>
      <g id="Grupo_1109880" data-name="Grupo 1109880" transform="translate(196.351 146.634)">
        <path id="Trazado_901403" data-name="Trazado 901403" d="M381.775,1289.942a1.12,1.12,0,0,1-.093.476c-.18.391-.606.491-1.1.2a2.637,2.637,0,0,1-1.2-2.062c0-.562.3-.875.718-.842a1.14,1.14,0,0,1,.479.161A2.637,2.637,0,0,1,381.775,1289.942Z" transform="translate(-379.381 -1287.715)" fill="#959bbf"/>
        <path id="Trazado_901404" data-name="Trazado 901404" d="M387.6,1289.962a1.119,1.119,0,0,1-.093.476,1.143,1.143,0,0,1-.479-.161,2.638,2.638,0,0,1-1.2-2.063,1.12,1.12,0,0,1,.094-.476,1.139,1.139,0,0,1,.479.161A2.638,2.638,0,0,1,387.6,1289.962Z" transform="translate(-385.208 -1287.736)" fill="#323440"/>
      </g>
      <ellipse id="Elipse_11539" data-name="Elipse 11539" cx="0.569" cy="0.985" rx="0.569" ry="0.985" transform="translate(260.491 168.075) rotate(-30.357)" fill="#949ac2"/>
      <ellipse id="Elipse_11540" data-name="Elipse 11540" cx="0.569" cy="0.985" rx="0.569" ry="0.985" transform="translate(201.422 133.989) rotate(-30.357)" fill="#949ac2"/>
      <ellipse id="Elipse_11541" data-name="Elipse 11541" cx="0.569" cy="0.985" rx="0.569" ry="0.985" transform="translate(216.77 131.076) rotate(-30.357)" fill="#949ac2"/>
      <ellipse id="Elipse_11542" data-name="Elipse 11542" cx="0.569" cy="0.985" rx="0.569" ry="0.985" transform="translate(224.536 138.427) rotate(-30.357)" fill="#949ac2"/>
      <ellipse id="Elipse_11543" data-name="Elipse 11543" cx="0.569" cy="0.985" rx="0.569" ry="0.985" transform="translate(247.604 148.836) rotate(-30.357)" fill="#949ac2"/>
      <ellipse id="Elipse_11544" data-name="Elipse 11544" cx="0.569" cy="0.985" rx="0.569" ry="0.985" transform="translate(237.377 145.853) rotate(-30.357)" fill="#949ac2"/>
      <path id="Trazado_901405" data-name="Trazado 901405" d="M433.6,1373.307l-69.317-40.024-1.515-2.094,74.454,43.056Z" transform="translate(-168.028 -1180.351)" fill="#54bce8"/>
      <path id="Trazado_901406" data-name="Trazado 901406" d="M378.194,1358.39l-.026,7.824,62.1,35.867,6.8-3.924Z" transform="translate(-181.934 -1204.921)" fill="#29abe2"/>
      <path id="Trazado_901407" data-name="Trazado 901407" d="M363.565,1366.214l1.044-.565v-6.672l-1.017-.587-1.59,5.037Z" transform="translate(-167.332 -1204.921)" fill="#1f80aa"/>
      <path id="Trazado_901408" data-name="Trazado 901408" d="M378.168,1434.015l1.044-.565,62.224,35.742-1.163.69Z" transform="translate(-181.934 -1272.722)" fill="#54bce8"/>
      <g id="Grupo_1109881" data-name="Grupo 1109881" transform="translate(244.385 117.255)">
        <path id="Trazado_901409" data-name="Trazado 901409" d="M876.081,998.729l.037-8.851,2.592-1.49,2.517,1.461,2.56-4.448,2.566-1.48.019,8.929-8.6,6.867Z" transform="translate(-876.081 -983.92)" fill="#daddff"/>
        <path id="Trazado_901410" data-name="Trazado 901410" d="M893.579,1008.855v-8.886l2.577-1.492,2.568,1.481,2.56-4.448,2.562-1.472.023,8.887Z" transform="translate(-891.887 -993.059)" fill="#b1bffe"/>
        <path id="Trazado_901411" data-name="Trazado 901411" d="M958.329,983.92l1.689.978-2.562,1.472-1.692-.971Z" transform="translate(-948.057 -983.92)" fill="#e6edf7"/>
        <path id="Trazado_901412" data-name="Trazado 901412" d="M879.054,1030.11l1.641.95-2.577,1.492-1.655-.953Z" transform="translate(-876.425 -1025.643)" fill="#e6edf7"/>
      </g>
      <g id="Grupo_1109882" data-name="Grupo 1109882" transform="translate(270.014 72.063)">
        <path id="Trazado_901413" data-name="Trazado 901413" d="M1162.8,516.6V625.427l-.268.154V517.065l-21.158,12.155V637.807l-.269.156v-108.9l.067-.039Z" transform="translate(-1141.1 -516.602)" fill="#095270"/>
      </g>
      <path id="Trazado_901414" data-name="Trazado 901414" d="M962.409,374.855l16.452-9.5-.009,6.73-11.829,6.761Z" transform="translate(-709.676 -307.918)" fill="#323440"/>
      <g id="Grupo_1109884" data-name="Grupo 1109884" transform="translate(271.812 123.153)">
        <g id="Grupo_1109883" data-name="Grupo 1109883" transform="translate(0)">
          <path id="Trazado_901415" data-name="Trazado 901415" d="M1186.6,1075.1h-1.073v-7.69a7.794,7.794,0,0,0-6.6-7.661l-10.754-1.609a9.95,9.95,0,0,1-8.477-9.84v-3.39h1.073v3.39a8.931,8.931,0,0,0,7.563,8.778l10.754,1.609a8.819,8.819,0,0,1,7.515,8.722v7.69Z" transform="translate(-1159.693 -1044.908)" fill="#383a49"/>
        </g>
      </g>
      <g id="Grupo_1109886" data-name="Grupo 1109886" transform="translate(274.513 123.689)">
        <g id="Grupo_1109885" data-name="Grupo 1109885" transform="translate(0)">
          <path id="Trazado_901416" data-name="Trazado 901416" d="M1211.691,1084.537h-1.073v-8.682c0-4.34-2.513-8.089-5.846-8.722l-9.574-1.817a8.644,8.644,0,0,1-5.453-3.8,12.976,12.976,0,0,1-2.124-7.238v-3.827h1.073v3.827c0,4.966,2.882,9.258,6.7,9.983l9.574,1.817a7.671,7.671,0,0,1,4.839,3.37,11.485,11.485,0,0,1,1.88,6.406Z" transform="translate(-1187.621 -1050.451)" fill="#383a49"/>
        </g>
      </g>
      <g id="Grupo_1109887" data-name="Grupo 1109887" transform="translate(247.341 51.801)">
        <path id="Trazado_901417" data-name="Trazado 901417" d="M906.647,308.646a1.857,1.857,0,0,1,.843-1.454.581.581,0,0,1,.613-.048v0l1.145.643h0a.574.574,0,0,1,.26.546,1.857,1.857,0,0,1-.843,1.454.638.638,0,0,1-.523.088l0,0-.025-.014a.393.393,0,0,1-.081-.046l-1.136-.629h0A.581.581,0,0,1,906.647,308.646Z" transform="translate(-906.647 -307.078)" fill="#959bbf"/>
        <ellipse id="Elipse_11545" data-name="Elipse 11545" cx="1.188" cy="0.686" rx="1.188" ry="0.686" transform="translate(0.824 2.411) rotate(-59.643)" fill="#e6edf7"/>
        <ellipse id="Elipse_11546" data-name="Elipse 11546" cx="0.878" cy="0.507" rx="0.878" ry="0.507" transform="translate(1.135 2.234) rotate(-59.643)" fill="#323440"/>
      </g>
      <g id="Grupo_1109889" data-name="Grupo 1109889" transform="translate(248.735 52.975)">
        <g id="Grupo_1109888" data-name="Grupo 1109888" transform="translate(0)">
          <path id="Trazado_901418" data-name="Trazado 901418" d="M960.055,339.528v34.037h-1.073V339.528a13.708,13.708,0,0,0-11.973-13.576l-15.859-2a21.537,21.537,0,0,1-7.416-2.346l-2.08-1.095-.584-.309c0-.021,0-.043,0-.066a1.389,1.389,0,0,1,.425-.923l.8.419,1.945,1.025a20.447,20.447,0,0,0,7.05,2.23l15.859,2A14.784,14.784,0,0,1,960.055,339.528Z" transform="translate(-921.068 -319.216)" fill="#383a49"/>
        </g>
      </g>
      <g id="Grupo_1109890" data-name="Grupo 1109890" transform="translate(289.731 144.949)">
        <path id="Trazado_901419" data-name="Trazado 901419" d="M1584.24,1456.864l23.089-13.332v-35.6l-23.071,13.357Z" transform="translate(-1561.103 -1394.619)" fill="#949ac2"/>
        <path id="Trazado_901420" data-name="Trazado 901420" d="M1368.127,1456.864l-23.137-13.332v-35.6l23.156,13.357Z" transform="translate(-1344.99 -1394.619)" fill="#c4cffc"/>
        <path id="Trazado_901421" data-name="Trazado 901421" d="M1368.146,1296.958l23.071-13.357-23.154-13.311L1344.99,1283.6Z" transform="translate(-1344.99 -1270.29)" fill="#e6edf7"/>
        <path id="Trazado_901422" data-name="Trazado 901422" d="M1799.257,1745.27v8.911l-1.322.749-1.246-8.167Z" transform="translate(-1753.008 -1699.337)" fill="#949ac2"/>
        <path id="Trazado_901423" data-name="Trazado 901423" d="M1559.4,1883.39v8.91l-1.579-.936-1.079-7.078Z" transform="translate(-1536.262 -1824.1)" fill="#c4cffc"/>
        <path id="Trazado_901424" data-name="Trazado 901424" d="M1584.23,1883.39v8.91l1.58-.936,1.071-7.024Z" transform="translate(-1561.094 -1824.1)" fill="#949ac2"/>
        <path id="Trazado_901425" data-name="Trazado 901425" d="M1344.99,1745.07v8.911l1.32.765,1.331-8.724Z" transform="translate(-1344.99 -1699.156)" fill="#c4cffc"/>
      </g>
      <g id="Grupo_1109893" data-name="Grupo 1109893" transform="translate(194.075 38.185)">
        <path id="Trazado_901426" data-name="Trazado 901426" d="M913.718,623.756l7.7-4.425-7.682-4.459Z" transform="translate(-859.768 -571.49)" fill="#29abe2"/>
        <g id="Grupo_1109891" data-name="Grupo 1109891" transform="translate(0 0)">
          <path id="Trazado_901427" data-name="Trazado 901427" d="M356.472,184.072l73.884,43.382.631-.379V209.292L410.4,191.487l-33.386-19.277-20.545-5.931-.631.379Z" transform="translate(-355.841 -166.278)" fill="#5f9ab3"/>
          <path id="Trazado_901428" data-name="Trazado 901428" d="M569.336,222.576l33.386,19.264V216.221l-33.363-19.277-.631.379Z" transform="translate(-548.141 -193.978)" fill="#5f9ab3"/>
        </g>
        <g id="Grupo_1109892" data-name="Grupo 1109892" transform="translate(0 0.379)">
          <path id="Trazado_901429" data-name="Trazado 901429" d="M355.841,187.99l74.516,43V213.21L409.772,195.4l-33.386-19.277L355.841,170.2Z" transform="translate(-355.841 -170.196)" fill="#7fcdee"/>
          <path id="Trazado_901430" data-name="Trazado 901430" d="M568.483,230.519l33.386,19.264V220.139l-33.363-19.277Z" transform="translate(-547.919 -197.896)" fill="#7fcdee"/>
        </g>
        <path id="Trazado_901431" data-name="Trazado 901431" d="M913.544,382.721l3.253-1.871-.046,6.714-2.594-2.256-.631.379Z" transform="translate(-859.595 -360.1)" fill="#29abe2"/>
        <path id="Trazado_901432" data-name="Trazado 901432" d="M1126.38,611.445l.631-.379V628.85l-.631.379Z" transform="translate(-1051.864 -568.052)" fill="#29abe2"/>
        <path id="Trazado_901433" data-name="Trazado 901433" d="M602.091,202.756l3.253-1.871-33.368-19.267-3.247,1.861Z" transform="translate(-548.141 -180.135)" fill="#54bce8"/>
      </g>
      <g id="Grupo_1109929" data-name="Grupo 1109929" transform="translate(316.049 131.08)">
        <g id="Grupo_1109894" data-name="Grupo 1109894" transform="translate(0.001 20.276)">
          <path id="Trazado_901434" data-name="Trazado 901434" d="M1631.062,1360.3a2.309,2.309,0,0,0,0-.489v-1.58h-.755a5.087,5.087,0,0,0-1.257-.992,10.717,10.717,0,0,0-9.7-.02,4.928,4.928,0,0,0-1.266,1.012h-.724v1.887h0a3.5,3.5,0,0,0,2.021,2.7,10.716,10.716,0,0,0,9.7.02,3.532,3.532,0,0,0,1.974-2.524h0Z" transform="translate(-1617.342 -1354.184)" fill="#b1bffe"/>
          <ellipse id="Elipse_11547" data-name="Elipse 11547" cx="3.958" cy="6.857" rx="3.958" ry="6.857" transform="matrix(0.006, -1, 1, 0.006, 0, 7.917)" fill="#daddff"/>
        </g>
        <path id="Trazado_901435" data-name="Trazado 901435" d="M1639.677,1329.147a2.8,2.8,0,0,0-1.708-2.6,9.1,9.1,0,0,0-8.235-.017,2.833,2.833,0,0,0-1.688,2.425h0v1.505s0,.01,0,.015v.082h0a2.975,2.975,0,0,0,1.716,2.292,9.1,9.1,0,0,0,8.235.017,3,3,0,0,0,1.677-2.144h0v-.011a1.939,1.939,0,0,0,0-.415Z" transform="translate(-1626.989 -1306.341)" fill="#b1bffe"/>
        <path id="XMLID_7_" d="M1631.018,1218.439v-13.977h-13.729v14.213h.015a3.461,3.461,0,0,0,2.03,2.8,10.753,10.753,0,0,0,9.73.021C1630.514,1220.658,1631.145,1219.538,1631.018,1218.439Z" transform="translate(-1617.274 -1196.959)" fill="#daddff"/>
        <g id="Grupo_1109927" data-name="Grupo 1109927" transform="translate(0.015 5.66)">
          <path id="Trazado_901436" data-name="Trazado 901436" d="M1631.018,1199.377V1185.4h-13.729v14.214h.015a3.461,3.461,0,0,0,2.03,2.8,10.754,10.754,0,0,0,9.73.02C1630.514,1201.6,1631.145,1200.477,1631.018,1199.377Z" transform="translate(-1617.289 -1185.4)" fill="#daddff"/>
          <g id="Grupo_1109910" data-name="Grupo 1109910" clip-path="url(#clip-path)">
            <g id="Grupo_1109895" data-name="Grupo 1109895" transform="translate(7.591 -5.622)">
              <rect id="Rectángulo_402594" data-name="Rectángulo 402594" width="0.184" height="25.461" fill="#949ac2"/>
            </g>
            <g id="Grupo_1109896" data-name="Grupo 1109896" transform="translate(7.591 -5.622)">
              <rect id="Rectángulo_402595" data-name="Rectángulo 402595" width="0.184" height="25.461" fill="#949ac2"/>
            </g>
            <g id="Grupo_1109897" data-name="Grupo 1109897" transform="translate(8.328 -5.622)">
              <rect id="Rectángulo_402596" data-name="Rectángulo 402596" width="0.184" height="25.461" fill="#949ac2"/>
            </g>
            <g id="Grupo_1109898" data-name="Grupo 1109898" transform="translate(9.065 -5.622)">
              <rect id="Rectángulo_402597" data-name="Rectángulo 402597" width="0.184" height="25.461" fill="#949ac2"/>
            </g>
            <g id="Grupo_1109899" data-name="Grupo 1109899" transform="translate(9.803 -5.622)">
              <rect id="Rectángulo_402598" data-name="Rectángulo 402598" width="0.184" height="25.461" fill="#949ac2"/>
            </g>
            <g id="Grupo_1109900" data-name="Grupo 1109900" transform="translate(10.54 -5.622)">
              <rect id="Rectángulo_402599" data-name="Rectángulo 402599" width="0.184" height="25.461" fill="#949ac2"/>
            </g>
            <g id="Grupo_1109901" data-name="Grupo 1109901" transform="translate(11.277 -5.622)">
              <rect id="Rectángulo_402600" data-name="Rectángulo 402600" width="0.184" height="25.461" fill="#949ac2"/>
            </g>
            <g id="Grupo_1109902" data-name="Grupo 1109902" transform="translate(12.015 -5.622)">
              <rect id="Rectángulo_402601" data-name="Rectángulo 402601" width="0.184" height="25.461" fill="#949ac2"/>
            </g>
            <g id="Grupo_1109903" data-name="Grupo 1109903" transform="translate(12.752 -5.622)">
              <rect id="Rectángulo_402602" data-name="Rectángulo 402602" width="0.184" height="25.461" fill="#949ac2"/>
            </g>
            <g id="Grupo_1109904" data-name="Grupo 1109904" transform="translate(13.49 -5.622)">
              <rect id="Rectángulo_402603" data-name="Rectángulo 402603" width="0.184" height="25.461" fill="#949ac2"/>
            </g>
            <g id="Grupo_1109905" data-name="Grupo 1109905" transform="translate(14.227 -5.622)">
              <rect id="Rectángulo_402604" data-name="Rectángulo 402604" width="0.184" height="25.461" fill="#949ac2"/>
            </g>
            <g id="Grupo_1109906" data-name="Grupo 1109906" transform="translate(14.964 -5.622)">
              <rect id="Rectángulo_402605" data-name="Rectángulo 402605" width="0.184" height="25.461" fill="#949ac2"/>
            </g>
            <g id="Grupo_1109907" data-name="Grupo 1109907" transform="translate(15.701 -5.622)">
              <rect id="Rectángulo_402606" data-name="Rectángulo 402606" width="0.184" height="25.461" fill="#949ac2"/>
            </g>
            <g id="Grupo_1109908" data-name="Grupo 1109908" transform="translate(16.438 -5.622)">
              <rect id="Rectángulo_402607" data-name="Rectángulo 402607" width="0.184" height="25.461" fill="#949ac2"/>
            </g>
            <g id="Grupo_1109909" data-name="Grupo 1109909" transform="translate(17.176 -5.622)">
              <rect id="Rectángulo_402608" data-name="Rectángulo 402608" width="0.184" height="25.461" fill="#949ac2"/>
            </g>
          </g>
          <g id="Grupo_1109926" data-name="Grupo 1109926" clip-path="url(#clip-path)">
            <g id="Grupo_1109911" data-name="Grupo 1109911" transform="translate(-3.285 -5.622)">
              <rect id="Rectángulo_402609" data-name="Rectángulo 402609" width="0.184" height="25.461" fill="#949ac2"/>
            </g>
            <g id="Grupo_1109912" data-name="Grupo 1109912" transform="translate(-3.285 -5.622)">
              <rect id="Rectángulo_402610" data-name="Rectángulo 402610" width="0.184" height="25.461" fill="#949ac2"/>
            </g>
            <g id="Grupo_1109913" data-name="Grupo 1109913" transform="translate(-2.547 -5.622)">
              <rect id="Rectángulo_402611" data-name="Rectángulo 402611" width="0.184" height="25.461" fill="#949ac2"/>
            </g>
            <g id="Grupo_1109914" data-name="Grupo 1109914" transform="translate(-1.81 -5.622)">
              <rect id="Rectángulo_402612" data-name="Rectángulo 402612" width="0.184" height="25.461" fill="#949ac2"/>
            </g>
            <g id="Grupo_1109915" data-name="Grupo 1109915" transform="translate(-1.072 -5.622)">
              <rect id="Rectángulo_402613" data-name="Rectángulo 402613" width="0.184" height="25.461" fill="#949ac2"/>
            </g>
            <g id="Grupo_1109916" data-name="Grupo 1109916" transform="translate(-0.335 -5.622)">
              <rect id="Rectángulo_402614" data-name="Rectángulo 402614" width="0.184" height="25.461" fill="#949ac2"/>
            </g>
            <g id="Grupo_1109917" data-name="Grupo 1109917" transform="translate(0.402 -5.622)">
              <rect id="Rectángulo_402615" data-name="Rectángulo 402615" width="0.184" height="25.461" fill="#949ac2"/>
            </g>
            <g id="Grupo_1109918" data-name="Grupo 1109918" transform="translate(1.139 -5.622)">
              <rect id="Rectángulo_402616" data-name="Rectángulo 402616" width="0.184" height="25.461" fill="#949ac2"/>
            </g>
            <g id="Grupo_1109919" data-name="Grupo 1109919" transform="translate(1.876 -5.622)">
              <rect id="Rectángulo_402617" data-name="Rectángulo 402617" width="0.184" height="25.461" fill="#949ac2"/>
            </g>
            <g id="Grupo_1109920" data-name="Grupo 1109920" transform="translate(2.614 -5.622)">
              <rect id="Rectángulo_402618" data-name="Rectángulo 402618" width="0.184" height="25.461" fill="#949ac2"/>
            </g>
            <g id="Grupo_1109921" data-name="Grupo 1109921" transform="translate(3.351 -5.622)">
              <rect id="Rectángulo_402619" data-name="Rectángulo 402619" width="0.184" height="25.461" fill="#949ac2"/>
            </g>
            <g id="Grupo_1109922" data-name="Grupo 1109922" transform="translate(4.089 -5.622)">
              <rect id="Rectángulo_402620" data-name="Rectángulo 402620" width="0.184" height="25.461" fill="#949ac2"/>
            </g>
            <g id="Grupo_1109923" data-name="Grupo 1109923" transform="translate(4.826 -5.622)">
              <rect id="Rectángulo_402621" data-name="Rectángulo 402621" width="0.184" height="25.461" fill="#949ac2"/>
            </g>
            <g id="Grupo_1109924" data-name="Grupo 1109924" transform="translate(5.564 -5.622)">
              <rect id="Rectángulo_402622" data-name="Rectángulo 402622" width="0.184" height="25.461" fill="#949ac2"/>
            </g>
            <g id="Grupo_1109925" data-name="Grupo 1109925" transform="translate(6.3 -5.622)">
              <rect id="Rectángulo_402623" data-name="Rectángulo 402623" width="0.184" height="25.461" fill="#949ac2"/>
            </g>
          </g>
        </g>
        <g id="Grupo_1109928" data-name="Grupo 1109928" transform="translate(0.021 3.732)">
          <path id="Trazado_901439" data-name="Trazado 901439" d="M1624.163,1165.46v.1a9.823,9.823,0,0,1,4.832,1.156,3.344,3.344,0,0,1,1.978,2.734,3.29,3.29,0,0,1-1.942,2.7,9.693,9.693,0,0,1-4.767,1.136,9.823,9.823,0,0,1-4.832-1.157,3.344,3.344,0,0,1-1.978-2.734,3.29,3.29,0,0,1,1.942-2.7,9.7,9.7,0,0,1,4.768-1.136v-.1m0,0a9.843,9.843,0,0,0-4.816,1.149c-2.668,1.54-2.652,4.047.035,5.6a9.979,9.979,0,0,0,4.881,1.17,9.844,9.844,0,0,0,4.816-1.149c2.668-1.54,2.652-4.047-.035-5.6a9.981,9.981,0,0,0-4.881-1.17Z" transform="translate(-1617.355 -1165.46)" fill="#383a49"/>
        </g>
        <path id="Trazado_901440" data-name="Trazado 901440" d="M1631.077,1167.53h0V1163.8l-4.268.083a11.525,11.525,0,0,0-5.678.11l-3.766.073v3.436c0,.012,0,.024,0,.037v.03h0a3.468,3.468,0,0,0,2.024,2.758,10.716,10.716,0,0,0,9.7.021A3.36,3.36,0,0,0,1631.077,1167.53Z" transform="translate(-1617.343 -1160.027)" fill="#daddff"/>
        <ellipse id="Elipse_11548" data-name="Elipse 11548" cx="3.958" cy="6.857" rx="3.958" ry="6.857" transform="matrix(0.006, -1, 1, 0.006, 0, 7.917)" fill="#e6edf7"/>
      </g>
      <g id="Grupo_1109930" data-name="Grupo 1109930" transform="translate(269.209 97.463)">
        <path id="Trazado_901441" data-name="Trazado 901441" d="M1132.78,825.5l.018,20.747,12.822,7.414V832.9Z" transform="translate(-1132.78 -821.032)" fill="#c4cffc"/>
        <path id="Trazado_901442" data-name="Trazado 901442" d="M1132.78,783.728l7.714-4.473,12.85,7.414-7.724,4.459Z" transform="translate(-1132.78 -779.256)" fill="#e6edf7"/>
        <path id="Trazado_901443" data-name="Trazado 901443" d="M1265.56,860.471v20.77l7.747-4.435-.023-20.773Z" transform="translate(-1252.719 -848.608)" fill="#949ac2"/>
      </g>
      <g id="Grupo_1109931" data-name="Grupo 1109931" transform="translate(270.514 106.595)">
        <ellipse id="Elipse_11549" data-name="Elipse 11549" cx="0.727" cy="1.259" rx="0.727" ry="1.259" transform="translate(0 12.532) rotate(-30.357)" fill="#5a1b1d"/>
        <ellipse id="Elipse_11550" data-name="Elipse 11550" cx="0.727" cy="1.259" rx="0.727" ry="1.259" transform="translate(0 6.634) rotate(-30.357)" fill="#1a5435"/>
        <ellipse id="Elipse_11551" data-name="Elipse 11551" cx="0.727" cy="1.259" rx="0.727" ry="1.259" transform="translate(0 0.735) rotate(-30.357)" fill="#b1bffe"/>
        <ellipse id="Elipse_11552" data-name="Elipse 11552" cx="0.51" cy="0.884" rx="0.51" ry="0.884" transform="translate(5.514 15.746) rotate(-30.357)" fill="#5a1b1d"/>
        <ellipse id="Elipse_11553" data-name="Elipse 11553" cx="0.51" cy="0.884" rx="0.51" ry="0.884" transform="translate(5.514 9.847) rotate(-30.357)" fill="#1a5435"/>
        <path id="Trazado_901444" data-name="Trazado 901444" d="M1150.284,999.514l-.244.184,1.3,2.155.3-.222Z" transform="translate(-1149.675 -987.345)" fill="#5a1b1d"/>
        <path id="Trazado_901445" data-name="Trazado 901445" d="M1204.88,1034.061l.272-.211.935,1.5-.236.179Z" transform="translate(-1199.212 -1018.361)" fill="#5a1b1d"/>
        <path id="Trazado_901446" data-name="Trazado 901446" d="M1204.92,973.124l.257-.2.937,1.5-.209.161Z" transform="translate(-1199.248 -963.327)" fill="#1a5435"/>
        <path id="Trazado_901447" data-name="Trazado 901447" d="M1151.361,940.792l.284-.214-1.343-2.123-.252.19Z" transform="translate(-1149.684 -932.192)" fill="#1a5435"/>
        <path id="Trazado_901448" data-name="Trazado 901448" d="M1149.6,877.905l.262-.2,1.4,2.082-.271.21Z" transform="translate(-1149.278 -877.313)" fill="#b1bffe"/>
      </g>
      <ellipse id="Elipse_11554" data-name="Elipse 11554" cx="0.727" cy="1.259" rx="0.727" ry="1.259" transform="translate(270.29 119.298) rotate(-30.357)" fill="#b3353a"/>
      <ellipse id="Elipse_11555" data-name="Elipse 11555" cx="0.727" cy="1.259" rx="0.727" ry="1.259" transform="translate(270.29 113.399) rotate(-30.357)" fill="#33a86a"/>
      <ellipse id="Elipse_11556" data-name="Elipse 11556" cx="0.727" cy="1.259" rx="0.727" ry="1.259" transform="translate(270.291 107.5) rotate(-30.357)" fill="#e6edf7"/>
      <ellipse id="Elipse_11557" data-name="Elipse 11557" cx="0.51" cy="0.884" rx="0.51" ry="0.884" transform="translate(275.805 122.511) rotate(-30.357)" fill="#b3353a"/>
      <ellipse id="Elipse_11558" data-name="Elipse 11558" cx="0.51" cy="0.884" rx="0.51" ry="0.884" transform="translate(275.805 116.612) rotate(-30.357)" fill="#33a86a"/>
      <g id="Grupo_1109932" data-name="Grupo 1109932" transform="translate(275.494 109.198)">
        <path id="Trazado_901449" data-name="Trazado 901449" d="M1201.388,904.372c0,.148-.1.208-.232.134l-2.188-1.263a.515.515,0,0,1-.232-.4v-2.078c0-.148.1-.208.232-.134l2.188,1.263a.516.516,0,0,1,.232.4Z" transform="translate(-1198.642 -900.596)" fill="#b1bffe"/>
        <path id="Trazado_901450" data-name="Trazado 901450" d="M1200.457,904.72l-.138.1-2.549-3.883.153-.117Z" transform="translate(-1197.77 -900.801)" fill="#b1bffe"/>
      </g>
      <path id="Trazado_901451" data-name="Trazado 901451" d="M1200.028,905.381c0,.147-.1.208-.232.134l-2.188-1.263a.515.515,0,0,1-.232-.4v-2.078c0-.148.1-.208.232-.134l2.188,1.263a.515.515,0,0,1,.232.4Z" transform="translate(-921.919 -792.31)" fill="#e6edf7"/>
      <ellipse id="Elipse_11559" data-name="Elipse 11559" cx="0.727" cy="1.259" rx="0.727" ry="1.259" transform="translate(275.429 110.499) rotate(-30.357)" fill="#5a1b1d"/>
      <g id="Grupo_1109933" data-name="Grupo 1109933" transform="translate(275.909 110.267)">
        <path id="Trazado_901452" data-name="Trazado 901452" d="M1203.337,911.675a.118.118,0,0,0-.1-.009h0l-.588.287.221,1.879.571-.278,0,0,.006,0h0a.162.162,0,0,0,.071-.154v-1.384A.4.4,0,0,0,1203.337,911.675Z" transform="translate(-1202.588 -911.658)" fill="#b3353a"/>
        <path id="Trazado_901453" data-name="Trazado 901453" d="M1202.419,916.3c0,.133-.081.2-.18.148a.407.407,0,0,1-.18-.336v-1.384c0-.133.081-.2.18-.148a.407.407,0,0,1,.18.336Z" transform="translate(-1202.058 -914.285)" fill="#c25d61"/>
      </g>
      <path id="Trazado_901454" data-name="Trazado 901454" d="M1311.38,924.589l-.951.322a.907.907,0,0,1-1.149-.568l-1.422-4.2a.906.906,0,0,1,.568-1.149l.951-.322a.907.907,0,0,1,1.149.568l1.422,4.2A.907.907,0,0,1,1311.38,924.589Z" transform="translate(-1021.674 -807.68)" fill="#b3353a"/>
      <path id="Trazado_901455" data-name="Trazado 901455" d="M1302.76,901.658v-5.9l2.826-1.644,1.594,5.023Z" transform="translate(-1017.113 -785.542)" fill="#b1bffe"/>
      <path id="Trazado_901456" data-name="Trazado 901456" d="M1305.586,894.113l-2.826,1.644,1.752,4.923,2.667-1.544Z" transform="translate(-1017.113 -785.542)" fill="#e1e4ff"/>
      <g id="Grupo_1109936" data-name="Grupo 1109936" transform="translate(294.883 141.764)">
        <path id="Trazado_901457" data-name="Trazado 901457" d="M1530.96,1332.263l7.728-4.451V1315.95l-2.569,1.5-5.1,5.93Z" transform="translate(-1518.127 -1308.349)" fill="#b1bffe"/>
        <path id="Trazado_901458" data-name="Trazado 901458" d="M1411.093,1332.1l-12.833-7.41v-8.921l12.9,7.443Z" transform="translate(-1398.26 -1308.186)" fill="#daddff"/>
        <path id="Trazado_901459" data-name="Trazado 901459" d="M1463.838,1248.136l2.568-1.5-12.836-7.42-2.63,1.472Z" transform="translate(-1445.846 -1239.039)" fill="#daddff"/>
        <path id="Trazado_901460" data-name="Trazado 901460" d="M1411.156,1267.814l5.1-5.93-12.9-7.444-5.094,5.931Z" transform="translate(-1398.26 -1252.787)" fill="#e1e4ff"/>
        <g id="Grupo_1109934" data-name="Grupo 1109934" transform="translate(7.609 5.93)">
          <ellipse id="Elipse_11560" data-name="Elipse 11560" cx="3.187" cy="2.44" rx="3.187" ry="2.44" transform="matrix(0.753, -0.659, 0.659, 0.753, 0, 4.198)" fill="#383a49"/>
          <ellipse id="Elipse_11561" data-name="Elipse 11561" cx="2.574" cy="1.971" rx="2.574" ry="1.971" transform="matrix(0.753, -0.659, 0.659, 0.753, 0.77, 4.147)" fill="#fff"/>
          <ellipse id="Elipse_11562" data-name="Elipse 11562" cx="0.336" cy="0.257" rx="0.336" ry="0.257" transform="matrix(0.753, -0.659, 0.659, 0.753, 3.584, 3.963)" fill="#383a49"/>
          <path id="Trazado_901461" data-name="Trazado 901461" d="M1500.47,1333.667c.1-.107.207-.206.313-.3l.352-.233.7-.467.7-.467.352-.233c.129-.056.258-.113.39-.162-.1.106-.208.2-.314.3l-.352.233-.7.467-.7.466-.352.234C1500.732,1333.562,1500.6,1333.619,1500.47,1333.667Z" transform="translate(-1498.195 -1328.597)" fill="#383a49"/>
          <path id="Trazado_901462" data-name="Trazado 901462" d="M1522.685,1317.85h-.075l.118-.44h.075Z" transform="translate(-1518.193 -1315.598)" fill="#383a49"/>
          <path id="Trazado_901463" data-name="Trazado 901463" d="M1514.528,1319.551l-.077.031-.072-.4.077-.03Z" transform="translate(-1510.759 -1317.17)" fill="#383a49"/>
          <path id="Trazado_901464" data-name="Trazado 901464" d="M1505.923,1324.684l-.065.056-.249-.295.066-.055Z" transform="translate(-1502.837 -1321.903)" fill="#383a49"/>
          <path id="Trazado_901465" data-name="Trazado 901465" d="M1499.474,1332.346l-.042.072-.381-.136.042-.071Z" transform="translate(-1496.912 -1328.967)" fill="#383a49"/>
          <path id="Trazado_901466" data-name="Trazado 901466" d="M1496.272,1340.8l-.013.075-.45.045.012-.074Z" transform="translate(-1493.985 -1336.726)" fill="#383a49"/>
          <path id="Trazado_901467" data-name="Trazado 901467" d="M1496.71,1347.74l.019.065-.439.22-.02-.065Z" transform="translate(-1494.401 -1342.995)" fill="#383a49"/>
          <path id="Trazado_901468" data-name="Trazado 901468" d="M1500.764,1353.23l.049.044-.354.355-.049-.044Z" transform="translate(-1498.14 -1347.954)" fill="#383a49"/>
          <path id="Trazado_901469" data-name="Trazado 901469" d="M1507.857,1356.32l.07.016-.207.43-.07-.015Z" transform="translate(-1504.68 -1350.745)" fill="#383a49"/>
          <path id="Trazado_901470" data-name="Trazado 901470" d="M1516.764,1356.335l.077-.016-.023.431-.078.015Z" transform="translate(-1512.891 -1350.745)" fill="#383a49"/>
          <path id="Trazado_901471" data-name="Trazado 901471" d="M1524.42,1353.274l.073-.044.163.356-.073.044Z" transform="translate(-1519.828 -1347.954)" fill="#383a49"/>
          <path id="Trazado_901472" data-name="Trazado 901472" d="M1530.8,1347.8l.055-.065.321.22-.054.065Z" transform="translate(-1525.592 -1342.995)" fill="#383a49"/>
          <path id="Trazado_901473" data-name="Trazado 901473" d="M1535.02,1340.875l.028-.075.425.046-.027.074Z" transform="translate(-1529.403 -1336.726)" fill="#383a49"/>
          <path id="Trazado_901474" data-name="Trazado 901474" d="M1536.324,1332.418l0-.072.455-.136,0,.071Z" transform="translate(-1530.577 -1328.967)" fill="#383a49"/>
          <path id="Trazado_901475" data-name="Trazado 901475" d="M1534.246,1324.74l-.036-.056.406-.294.035.055Z" transform="translate(-1528.671 -1321.903)" fill="#383a49"/>
          <path id="Trazado_901476" data-name="Trazado 901476" d="M1529.43,1319.582l-.06-.031.286-.4.06.03Z" transform="translate(-1524.3 -1317.17)" fill="#383a49"/>
        </g>
        <path id="Trazado_901477" data-name="Trazado 901477" d="M1430.845,1276.011l-2.109,2.431-.268.308-.99,1.142a.593.593,0,0,1-.655.231c-.168-.1-.146-.358.046-.582l1.6-1.862.268-.311,1.477-1.72a.6.6,0,0,1,.667-.224C1431.053,1275.524,1431.037,1275.788,1430.845,1276.011Z" transform="translate(-1423.958 -1271.706)" fill="#383a49"/>
        <path id="Trazado_901478" data-name="Trazado 901478" d="M1431.78,1268.475l1.688-1.965,1.207.7-1.643,1.991Z" transform="translate(-1428.538 -1263.69)" fill="#fff"/>
        <path id="Trazado_901479" data-name="Trazado 901479" d="M1412.85,1291.085l1.687-1.965,1.207.7-1.643,1.991Z" transform="translate(-1411.439 -1284.114)" fill="#fff"/>
        <g id="Grupo_1109935" data-name="Grupo 1109935" transform="translate(3.922)">
          <path id="Trazado_901480" data-name="Trazado 901480" d="M1445.149,1247.86v5.719l-.269.308v-6.028Z" transform="translate(-1444.294 -1246.844)" fill="#959bbf"/>
          <path id="Trazado_901481" data-name="Trazado 901481" d="M1439.538,1237.35a.721.721,0,0,0-.721.721v.972a.721.721,0,1,0,1.441,0v-.972A.721.721,0,0,0,1439.538,1237.35Z" transform="translate(-1438.818 -1237.35)" fill="#636780"/>
        </g>
      </g>
    </g>
  </g>
</svg>
