<svg xmlns="http://www.w3.org/2000/svg" width="400" height="78.624" viewBox="0 0 400 78.624">
  <g id="astm" transform="translate(-1.3 -1.4)">
    <path id="Trazado_901238" data-name="Trazado 901238" d="M341.4,71.653a.978.978,0,0,1-.907-.628l-1.151-2.9H331.77l-1.151,2.9a1.014,1.014,0,0,1-.907.628.99.99,0,0,1-1.012-1.012,1.239,1.239,0,0,1,.07-.349L334,57.212a1.6,1.6,0,0,1,1.535-1.012,1.639,1.639,0,0,1,1.5,1.012l5.3,13.081a1.24,1.24,0,0,1,.07.349A.988.988,0,0,1,341.4,71.653Zm-2.616-5.2-3.209-8.2-3.244,8.2Z" transform="translate(-213.196 -35.685)" fill="#00355b"/>
    <path id="Trazado_901239" data-name="Trazado 901239" d="M378.951,71.6a7.97,7.97,0,0,1-5.337-1.884.878.878,0,0,1-.314-.7.929.929,0,0,1,.907-.942.878.878,0,0,1,.558.174,6.428,6.428,0,0,0,4.256,1.674c2.721,0,3.593-1.465,3.593-2.616,0-3.907-9-1.744-9-7.186,0-2.477,2.232-4.221,5.232-4.221a7.6,7.6,0,0,1,4.883,1.6.878.878,0,0,1,.314.7.9.9,0,0,1-.907.907.855.855,0,0,1-.558-.209,6.159,6.159,0,0,0-3.907-1.326c-1.814,0-3.139.942-3.139,2.407,0,3.418,9,1.465,9,7.151C384.532,69.33,383.032,71.6,378.951,71.6Z" transform="translate(-242.239 -35.489)" fill="#00355b"/>
    <path id="Trazado_901240" data-name="Trazado 901240" d="M420.488,58.109h-4.151V70.841a.942.942,0,0,1-1.884,0V58.109h-4.116a.835.835,0,0,1-.837-.872.826.826,0,0,1,.837-.837h10.151a.835.835,0,0,1,.837.872A.806.806,0,0,1,420.488,58.109Z" transform="translate(-265.812 -35.815)" fill="#00355b"/>
    <path id="Trazado_901241" data-name="Trazado 901241" d="M464.16,70.711a.942.942,0,0,1-1.884,0V58.991l-5.093,12.348a.51.51,0,0,1-.488.314.438.438,0,0,1-.419-.314l-5.093-12.348v11.72a.942.942,0,0,1-1.884,0V57.735a1.556,1.556,0,0,1,1.57-1.535,1.613,1.613,0,0,1,1.5.942l4.36,10.6,4.4-10.6a1.559,1.559,0,0,1,1.5-.942,1.579,1.579,0,0,1,1.57,1.535V70.711Z" transform="translate(-291.729 -35.685)" fill="#00355b"/>
    <path id="Trazado_901242" data-name="Trazado 901242" d="M517.484,70.646a.942.942,0,0,1-1.884,0V57.007a.919.919,0,0,1,.977-.907.88.88,0,0,1,.907.907Z" transform="translate(-334.902 -35.62)" fill="#00355b"/>
    <path id="Trazado_901243" data-name="Trazado 901243" d="M542.192,70.506a1.1,1.1,0,0,1-1.151,1.081,1.158,1.158,0,0,1-.942-.488l-8.616-11.79V70.646a.942.942,0,0,1-1.884,0V57.251a1.157,1.157,0,0,1,1.221-1.151,1.289,1.289,0,0,1,1.012.488L540.309,68.1V57.007a.919.919,0,0,1,.977-.907.88.88,0,0,1,.907.907Z" transform="translate(-344.018 -35.62)" fill="#00355b"/>
    <path id="Trazado_901244" data-name="Trazado 901244" d="M582.888,58.109h-4.151V70.841a.942.942,0,1,1-1.884,0V58.109h-4.116a.835.835,0,0,1-.837-.872.826.826,0,0,1,.837-.837h10.186a.835.835,0,0,1,.837.872A.9.9,0,0,1,582.888,58.109Z" transform="translate(-371.563 -35.815)" fill="#00355b"/>
    <path id="Trazado_901245" data-name="Trazado 901245" d="M620.779,71.709H612.86a1.362,1.362,0,0,1-1.36-1.36V57.86a1.362,1.362,0,0,1,1.36-1.36h7.918a.835.835,0,0,1,.837.872.826.826,0,0,1-.837.837h-7.395v4.918H620.6a.835.835,0,0,1,.837.872.826.826,0,0,1-.837.837h-7.221v5.232h7.395a.82.82,0,1,1,0,1.639Z" transform="translate(-397.35 -35.88)" fill="#00355b"/>
    <path id="Trazado_901246" data-name="Trazado 901246" d="M655.341,65.5l3.279,4.953a.872.872,0,0,1,.14.488.931.931,0,0,1-.942.907.918.918,0,0,1-.767-.419l-3.732-5.756h-3.035v5.232a.942.942,0,1,1-1.884,0V57.86a1.362,1.362,0,0,1,1.36-1.36H654.5a4.433,4.433,0,0,1,4.779,4.57A4.177,4.177,0,0,1,655.341,65.5Zm-5.058-7.325V64h3.977a2.915,2.915,0,1,0,0-5.825Z" transform="translate(-421.379 -35.88)" fill="#00355b"/>
    <path id="Trazado_901247" data-name="Trazado 901247" d="M700.092,70.506a1.1,1.1,0,0,1-1.151,1.081A1.158,1.158,0,0,1,698,71.1l-8.616-11.79V70.646a.942.942,0,0,1-1.884,0V57.251a1.157,1.157,0,0,1,1.221-1.151,1.289,1.289,0,0,1,1.012.488L698.209,68.1V57.007a.918.918,0,0,1,.977-.907.88.88,0,0,1,.907.907Z" transform="translate(-446.84 -35.62)" fill="#00355b"/>
    <path id="Trazado_901248" data-name="Trazado 901248" d="M742.9,71.653a.978.978,0,0,1-.907-.628l-1.151-2.9H733.27l-1.151,2.9a1.014,1.014,0,0,1-.907.628.99.99,0,0,1-1.011-1.012,1.238,1.238,0,0,1,.07-.349L735.5,57.212a1.6,1.6,0,0,1,1.535-1.012,1.64,1.64,0,0,1,1.5,1.012l5.3,13.081a1.238,1.238,0,0,1,.07.349A1.011,1.011,0,0,1,742.9,71.653Zm-2.616-5.2-3.209-8.2-3.244,8.2Z" transform="translate(-474.645 -35.685)" fill="#00355b"/>
    <path id="Trazado_901249" data-name="Trazado 901249" d="M777.188,58.109h-4.151V70.841a.942.942,0,1,1-1.884,0V58.109h-4.116a.835.835,0,0,1-.837-.872.826.826,0,0,1,.837-.837h10.186a.835.835,0,0,1,.837.872A.879.879,0,0,1,777.188,58.109Z" transform="translate(-498.088 -35.815)" fill="#00355b"/>
    <path id="Trazado_901250" data-name="Trazado 901250" d="M808.484,70.646a.942.942,0,1,1-1.884,0V57.007a.918.918,0,0,1,.977-.907.88.88,0,0,1,.907.907Z" transform="translate(-524.395 -35.62)" fill="#00355b"/>
    <path id="Trazado_901251" data-name="Trazado 901251" d="M826.635,71.467c-4.5,0-7.534-3.384-7.534-7.883s3.07-7.883,7.534-7.883c4.5,0,7.535,3.384,7.535,7.883C834.2,68.083,831.134,71.467,826.635,71.467Zm0-14.057c-3.418,0-5.581,2.616-5.581,6.174,0,3.523,2.163,6.174,5.581,6.174,3.384,0,5.581-2.651,5.581-6.174C832.251,60.025,830.018,57.409,826.635,57.409Z" transform="translate(-532.535 -35.359)" fill="#00355b"/>
    <path id="Trazado_901252" data-name="Trazado 901252" d="M882.492,70.506a1.1,1.1,0,0,1-1.151,1.081,1.158,1.158,0,0,1-.942-.488l-8.616-11.79V70.646a.942.942,0,1,1-1.884,0V57.251a1.157,1.157,0,0,1,1.221-1.151,1.289,1.289,0,0,1,1.012.488L880.609,68.1V57.007a.919.919,0,0,1,.977-.907.88.88,0,0,1,.907.907v13.5Z" transform="translate(-565.615 -35.62)" fill="#00355b"/>
    <path id="Trazado_901253" data-name="Trazado 901253" d="M925.3,71.653a.977.977,0,0,1-.907-.628l-1.151-2.9H915.67l-1.151,2.9a1.014,1.014,0,0,1-.907.628.99.99,0,0,1-1.012-1.012,1.238,1.238,0,0,1,.07-.349L917.9,57.212a1.6,1.6,0,0,1,1.535-1.012,1.639,1.639,0,0,1,1.5,1.012l5.3,13.081a1.238,1.238,0,0,1,.07.349A1.011,1.011,0,0,1,925.3,71.653Zm-2.616-5.2-3.209-8.2-3.244,8.2Z" transform="translate(-593.42 -35.685)" fill="#00355b"/>
    <path id="Trazado_901254" data-name="Trazado 901254" d="M966.867,71.448H959.96a1.362,1.362,0,0,1-1.36-1.36V57.007a.919.919,0,0,1,.977-.907.88.88,0,0,1,.907.907V69.774h6.383a.826.826,0,0,1,.837.837A.848.848,0,0,1,966.867,71.448Z" transform="translate(-623.375 -35.62)" fill="#00355b"/>
    <path id="Trazado_901255" data-name="Trazado 901255" d="M341.462,141.546a.942.942,0,0,1-1.884,0v-6.174h-8.895v6.174a.942.942,0,0,1-1.884,0V127.907a.919.919,0,0,1,.977-.907.88.88,0,0,1,.907.907v5.756h8.895v-5.756a.919.919,0,0,1,.977-.907.88.88,0,0,1,.907.907v13.639Z" transform="translate(-213.261 -81.788)" fill="#0095d6"/>
    <path id="Trazado_901256" data-name="Trazado 901256" d="M382.432,145.014h-7.953a3.852,3.852,0,0,0,3.977,3.8,4.631,4.631,0,0,0,2.965-1.012.7.7,0,0,1,.384-.1.747.747,0,0,1,.7.7.759.759,0,0,1-.244.558,5.9,5.9,0,0,1-3.942,1.291,5.779,5.779,0,0,1-.174-11.546,5.026,5.026,0,0,1,5.093,4.256,6.1,6.1,0,0,1,.174,1.151A.987.987,0,0,1,382.432,145.014Zm-.733-1.256a3.572,3.572,0,0,0-3.628-3.663,3.66,3.66,0,0,0-3.593,3.663Z" transform="translate(-241.848 -89.407)" fill="#0095d6"/>
    <path id="Trazado_901257" data-name="Trazado 901257" d="M412.509,141.55a.855.855,0,0,1-1.709,0V127.737a.873.873,0,0,1,1.744,0V141.55Z" transform="translate(-266.658 -81.723)" fill="#0095d6"/>
    <path id="Trazado_901258" data-name="Trazado 901258" d="M429.242,150.116a4.477,4.477,0,0,1-3.732-1.953v5.163a.88.88,0,0,1-.872.837.849.849,0,0,1-.837-.837V139.477a.873.873,0,0,1,1.744,0v.942a4.618,4.618,0,0,1,3.732-1.919c2.93,0,4.918,2.2,4.918,5.756C434.16,147.883,432.172,150.116,429.242,150.116Zm-.419-10.046a3.983,3.983,0,0,0-3.279,1.744V146.8a4.063,4.063,0,0,0,3.279,1.779c2.2,0,3.523-1.814,3.523-4.256S431.021,140.07,428.823,140.07Z" transform="translate(-275.124 -89.277)" fill="#0095d6"/>
    <path id="Trazado_901259" data-name="Trazado 901259" d="M462.2,129.451a1.161,1.161,0,0,1-1.151,1.151,1.139,1.139,0,0,1-1.151-1.151,1.151,1.151,0,1,1,2.3,0Zm-.279,13.011a.855.855,0,0,1-1.709,0v-9.627a.873.873,0,0,1,1.744,0v9.627Z" transform="translate(-298.631 -82.635)" fill="#0095d6"/>
    <path id="Trazado_901260" data-name="Trazado 901260" d="M481.974,149.169a.855.855,0,0,1-1.709,0v-6.488c0-1.953-.977-2.546-2.477-2.546a4.25,4.25,0,0,0-3.279,1.709v7.36a.855.855,0,0,1-1.709,0v-9.627a.873.873,0,0,1,1.744,0v.907a5.446,5.446,0,0,1,3.907-1.884c2.3,0,3.523,1.151,3.523,3.558Z" transform="translate(-307.031 -89.342)" fill="#0095d6"/>
    <path id="Trazado_901261" data-name="Trazado 901261" d="M515.99,149.588c0,3.663-2.581,4.779-5.232,4.779a5.861,5.861,0,0,1-4.116-1.326.651.651,0,0,1-.244-.558.745.745,0,0,1,.767-.732.607.607,0,0,1,.488.174,4.3,4.3,0,0,0,3.139,1.046c1.814,0,3.523-.872,3.523-3.314v-1.57a4.582,4.582,0,0,1-3.7,1.953c-2.86,0-4.918-2.128-4.918-5.721,0-3.523,1.988-5.721,4.918-5.721a4.551,4.551,0,0,1,3.7,1.953v-.977a.873.873,0,0,1,1.744,0v10.011Zm-1.709-7.674A4.1,4.1,0,0,0,511,140.135c-2.2,0-3.523,1.744-3.523,4.186,0,2.407,1.326,4.186,3.523,4.186a4.042,4.042,0,0,0,3.279-1.814Z" transform="translate(-328.455 -89.342)" fill="#0095d6"/>
    <path id="Trazado_901262" data-name="Trazado 901262" d="M562.142,150.246c-3.384,0-5.442-2.616-5.442-5.79,0-3.209,2.093-5.756,5.442-5.756,3.384,0,5.442,2.581,5.442,5.756S565.525,150.246,562.142,150.246Zm0-10.046c-2.372,0-3.663,2.023-3.663,4.256,0,2.267,1.291,4.256,3.663,4.256,2.337,0,3.663-2.023,3.663-4.256C565.8,142.188,564.479,140.2,562.142,140.2Z" transform="translate(-361.665 -89.407)" fill="#0095d6"/>
    <path id="Trazado_901263" data-name="Trazado 901263" d="M604.039,149.3a.855.855,0,0,1-1.709,0v-.837a5.269,5.269,0,0,1-3.907,1.814c-2.3,0-3.523-1.116-3.523-3.523v-7.081a.873.873,0,0,1,1.744,0v6.558c0,1.953.977,2.511,2.477,2.511a4.221,4.221,0,0,0,3.279-1.674v-7.43a.873.873,0,0,1,1.744,0V149.3Z" transform="translate(-386.541 -89.472)" fill="#0095d6"/>
    <path id="Trazado_901264" data-name="Trazado 901264" d="M633.474,140.544a3.655,3.655,0,0,0-2.93,1.674V149.3a.857.857,0,0,1-.872.837h-.035a.873.873,0,0,1-.837-.837v-9.627a.873.873,0,0,1,1.744,0v1.081c.7-.872,1.744-1.953,3.035-1.953a.782.782,0,0,1,.767.8A.844.844,0,0,1,633.474,140.544Z" transform="translate(-408.616 -89.472)" fill="#0095d6"/>
    <path id="Trazado_901265" data-name="Trazado 901265" d="M676.2,139.981l-3.035,9.488a1.134,1.134,0,0,1-1.047.767h-.035a1.047,1.047,0,0,1-1.012-.767l-2.686-8.232-2.686,8.232a1.18,1.18,0,0,1-1.081.767h-.035a1.078,1.078,0,0,1-1.012-.767l-3.035-9.488a.682.682,0,0,1-.035-.244.872.872,0,0,1,.837-.837.925.925,0,0,1,.837.558l2.546,8.337,2.721-8.267a.944.944,0,0,1,.907-.628.968.968,0,0,1,.872.628l2.721,8.267,2.546-8.337a.841.841,0,0,1,.837-.558.826.826,0,0,1,.837.837A.207.207,0,0,1,676.2,139.981Z" transform="translate(-429.258 -89.537)" fill="#0095d6"/>
    <path id="Trazado_901266" data-name="Trazado 901266" d="M715.342,150.246c-3.384,0-5.442-2.616-5.442-5.79,0-3.209,2.093-5.756,5.442-5.756s5.442,2.581,5.442,5.756S718.725,150.246,715.342,150.246Zm0-10.046c-2.372,0-3.663,2.023-3.663,4.256,0,2.267,1.291,4.256,3.663,4.256,2.337,0,3.663-2.023,3.663-4.256C719,142.188,717.679,140.2,715.342,140.2Z" transform="translate(-461.426 -89.407)" fill="#0095d6"/>
    <path id="Trazado_901267" data-name="Trazado 901267" d="M752.674,140.544a3.655,3.655,0,0,0-2.93,1.674V149.3a.857.857,0,0,1-.872.837h-.035A.873.873,0,0,1,748,149.3v-9.627a.856.856,0,0,1,.872-.837.873.873,0,0,1,.837.837v1.081c.7-.872,1.744-1.953,3.035-1.953a.782.782,0,0,1,.767.8A.8.8,0,0,1,752.674,140.544Z" transform="translate(-486.236 -89.472)" fill="#0095d6"/>
    <path id="Trazado_901268" data-name="Trazado 901268" d="M771.109,141.55a.855.855,0,0,1-1.709,0V127.737a.856.856,0,0,1,.872-.837.873.873,0,0,1,.837.837Z" transform="translate(-500.171 -81.723)" fill="#0095d6"/>
    <path id="Trazado_901269" data-name="Trazado 901269" d="M791.26,141.616a.855.855,0,0,1-1.709,0v-.942a4.668,4.668,0,0,1-3.732,1.919c-2.86,0-4.918-2.2-4.918-5.756,0-3.523,1.988-5.79,4.918-5.79A4.614,4.614,0,0,1,789.551,133v-5.163a.856.856,0,0,1,.872-.837.873.873,0,0,1,.837.837Zm-1.709-7.255a4.128,4.128,0,0,0-3.314-1.779c-2.2,0-3.523,1.814-3.523,4.256s1.326,4.256,3.523,4.256a4.1,4.1,0,0,0,3.314-1.744Z" transform="translate(-507.66 -81.788)" fill="#0095d6"/>
    <path id="Trazado_901270" data-name="Trazado 901270" d="M846,139.981l-3.035,9.488a1.134,1.134,0,0,1-1.046.767h-.035a1.047,1.047,0,0,1-1.012-.767l-2.686-8.232-2.686,8.232a1.18,1.18,0,0,1-1.081.767h-.035a1.079,1.079,0,0,1-1.012-.767l-3.035-9.488a.682.682,0,0,1-.035-.244.872.872,0,0,1,.837-.837.925.925,0,0,1,.837.558l2.546,8.337,2.721-8.267a.944.944,0,0,1,.907-.628.968.968,0,0,1,.872.628l2.721,8.267,2.546-8.337a.841.841,0,0,1,.837-.558.826.826,0,0,1,.837.837C846.067,139.807,846.032,139.877,846,139.981Z" transform="translate(-539.828 -89.537)" fill="#0095d6"/>
    <path id="Trazado_901271" data-name="Trazado 901271" d="M885.142,150.246c-3.384,0-5.442-2.616-5.442-5.79,0-3.209,2.093-5.756,5.442-5.756a5.4,5.4,0,0,1,5.477,5.721C890.618,147.63,888.525,150.246,885.142,150.246Zm0-10.046c-2.372,0-3.663,2.023-3.663,4.256,0,2.267,1.291,4.256,3.663,4.256,2.337,0,3.663-2.023,3.663-4.256C888.8,142.188,887.514,140.2,885.142,140.2Z" transform="translate(-571.997 -89.407)" fill="#0095d6"/>
    <path id="Trazado_901272" data-name="Trazado 901272" d="M922.474,140.544a3.655,3.655,0,0,0-2.93,1.674V149.3a.857.857,0,0,1-.872.837h-.035a.873.873,0,0,1-.837-.837v-9.627a.856.856,0,0,1,.872-.837.873.873,0,0,1,.837.837v1.081c.7-.872,1.744-1.953,3.035-1.953a.782.782,0,0,1,.767.8A.8.8,0,0,1,922.474,140.544Z" transform="translate(-596.807 -89.472)" fill="#0095d6"/>
    <path id="Trazado_901273" data-name="Trazado 901273" d="M947.223,142.488a.859.859,0,0,1-.663-.314l-3.837-4.779-1.814,1.814v2.442a.855.855,0,0,1-1.709,0V127.837a.856.856,0,0,1,.872-.837.873.873,0,0,1,.837.837v9.383l5.721-5.79a.674.674,0,0,1,.523-.244.843.843,0,0,1,.8.837.633.633,0,0,1-.209.488l-3.732,3.837,3.907,4.814a.926.926,0,0,1,.174.488A.906.906,0,0,1,947.223,142.488Z" transform="translate(-610.742 -81.788)" fill="#0095d6"/>
    <path id="Trazado_901274" data-name="Trazado 901274" d="M991.742,142.627a4.72,4.72,0,0,1-3.732-1.919v.942a.855.855,0,0,1-1.709,0V127.837a.856.856,0,0,1,.872-.837.873.873,0,0,1,.837.837V133a4.566,4.566,0,0,1,3.732-1.953c2.86,0,4.918,2.267,4.918,5.79C996.625,140.43,994.567,142.627,991.742,142.627Zm-.453-10.046a4.012,4.012,0,0,0-3.279,1.779v4.988a4.033,4.033,0,0,0,3.279,1.744c2.267,0,3.558-1.814,3.558-4.256S993.555,132.581,991.288,132.581Z" transform="translate(-641.412 -81.788)" fill="#0095d6"/>
    <path id="Trazado_901275" data-name="Trazado 901275" d="M1031.232,145.014h-7.953a3.852,3.852,0,0,0,3.977,3.8,4.631,4.631,0,0,0,2.965-1.012.7.7,0,0,1,.384-.1.722.722,0,0,1,.7.7.759.759,0,0,1-.244.558,5.9,5.9,0,0,1-3.942,1.291,5.779,5.779,0,0,1-.174-11.546,5.026,5.026,0,0,1,5.093,4.256,6.1,6.1,0,0,1,.174,1.151A.987.987,0,0,1,1031.232,145.014Zm-.732-1.256a3.572,3.572,0,0,0-3.628-3.663,3.66,3.66,0,0,0-3.593,3.663Z" transform="translate(-664.334 -89.407)" fill="#0095d6"/>
    <path id="Trazado_901276" data-name="Trazado 901276" d="M1059.5,144.776c-1.639,0-2.442-.942-2.442-2.581v-7.221h-1.221a.724.724,0,0,1-.733-.767.7.7,0,0,1,.733-.733h1.221v-2.337a.873.873,0,0,1,1.744,0v2.337h1.64a.724.724,0,0,1,.732.767.715.715,0,0,1-.732.733h-1.64v6.837c0,.837.349,1.43,1.116,1.43.314,0,.628-.174.907-.174a.73.73,0,0,1,.733.7C1061.518,144.5,1060.472,144.776,1059.5,144.776Z" transform="translate(-686.214 -83.937)" fill="#0095d6"/>
    <path id="Trazado_901277" data-name="Trazado 901277" d="M1078.4,144.776c-1.639,0-2.442-.942-2.442-2.581v-7.221h-1.221a.724.724,0,0,1-.733-.767.7.7,0,0,1,.733-.733h1.221v-2.337a.873.873,0,0,1,1.744,0v2.337h1.639a.724.724,0,0,1,.733.767.715.715,0,0,1-.733.733H1077.7v6.837c0,.837.349,1.43,1.116,1.43.314,0,.628-.174.907-.174a.73.73,0,0,1,.733.7C1080.418,144.5,1079.372,144.776,1078.4,144.776Z" transform="translate(-698.521 -83.937)" fill="#0095d6"/>
    <path id="Trazado_901278" data-name="Trazado 901278" d="M1105.532,145.014h-7.953a3.852,3.852,0,0,0,3.977,3.8,4.632,4.632,0,0,0,2.965-1.012.7.7,0,0,1,.384-.1.722.722,0,0,1,.7.7.759.759,0,0,1-.244.558,5.9,5.9,0,0,1-3.942,1.291,5.779,5.779,0,0,1-.174-11.546,5.026,5.026,0,0,1,5.093,4.256,6.107,6.107,0,0,1,.174,1.151A1.014,1.014,0,0,1,1105.532,145.014Zm-.733-1.256a3.572,3.572,0,0,0-3.628-3.663,3.66,3.66,0,0,0-3.593,3.663Z" transform="translate(-712.717 -89.407)" fill="#0095d6"/>
    <path id="Trazado_901279" data-name="Trazado 901279" d="M1136.874,140.544a3.655,3.655,0,0,0-2.93,1.674V149.3a.857.857,0,0,1-.872.837h-.035a.873.873,0,0,1-.837-.837v-9.627a.856.856,0,0,1,.872-.837.873.873,0,0,1,.837.837v1.081c.7-.872,1.744-1.953,3.035-1.953a.782.782,0,0,1,.767.8A.8.8,0,0,1,1136.874,140.544Z" transform="translate(-736.42 -89.472)" fill="#0095d6"/>
    <path id="Trazado_901280" data-name="Trazado 901280" d="M91.679,42.735a38.456,38.456,0,0,1-8.965,23.022.947.947,0,0,1-.837.453,1.552,1.552,0,0,1-.907-.349c-.558-.419-1.849-1.465-2.267-1.814a1.254,1.254,0,0,1-.593-.977,1.9,1.9,0,0,1,.419-1.046c3.942-5.686,6.069-10.5,6.872-15.7A55.283,55.283,0,0,0,91.679,42.735ZM74.448,51.142c-1.919.733-3.942,1.465-6.035,2.2V74.861c0,.767.349,1.151,1.012,1.151a2.109,2.109,0,0,0,.837-.174,29.327,29.327,0,0,0,3.349-1.849c.733-.523.837-.942.837-1.988V51.142ZM55.681,57.176V78.559a1.017,1.017,0,0,0,1.151,1.151,14.949,14.949,0,0,0,3.593-.733,1.381,1.381,0,0,0,1.151-1.535V55.467C59.658,56.06,57.7,56.618,55.681,57.176ZM22.613,62.723v3.942a2.73,2.73,0,0,0,1.116,2.616c.837.7,1.849,1.5,2.9,2.407a1.69,1.69,0,0,0,1.046.453c.488,0,.8-.314.8-1.012V62.3C26.52,62.478,24.531,62.618,22.613,62.723Zm21.034-2.686v12.1c0,.872-.349,1.186-1.046,1.186a6.709,6.709,0,0,1-2.756-.7A2.009,2.009,0,0,1,38.763,70.5V60.909c-1.988.349-3.977.628-5.93.907V72.455c0,2.232.663,3.418,2.791,4.6A30.236,30.236,0,0,0,47.03,80.024a2.317,2.317,0,0,0,2.616-2.477V58.641C47.623,59.165,45.635,59.618,43.647,60.037Zm58.113-32.65c0,9.558-23.057,21.976-53.648,29.161-9.523,2.232-20.406,4.011-29.057,4.011C6.463,60.56,1.3,56.095,1.3,51.037c0-3.07,1.849-5.965,5.756-8.581a1.2,1.2,0,0,1,.593-.244A.33.33,0,0,1,8,42.561c0,.174-.1.314-.314.488q-4.6,3.61-4.6,7.535c0,3.558,3.907,7.43,15.732,7.43,1.151,0,2.407-.035,3.8-.1V43.258H17.241a36.8,36.8,0,0,0,1.535,8.058,3.555,3.555,0,0,1,.174.837c0,.488-.244.767-.977,1.046-.872.314-1.674.593-2.442.872a2.763,2.763,0,0,1-.837.174c-.558,0-.872-.314-1.116-.942a35.943,35.943,0,0,1-2.3-13.151c0-11.72,6.279-23.266,15.174-30A1.805,1.805,0,0,1,27.6,9.7a.916.916,0,0,1,.942.942V57.455c1.4-.14,2.86-.349,4.36-.558V48.386c0-1.081.419-1.465,1.57-1.465h2.791c1.151,0,1.535.384,1.535,1.465v7.569c1.6-.279,3.209-.593,4.849-.942V46.991a2.609,2.609,0,0,0-1.535-2.756c-1.151-.7-3.453-2.058-5.058-3-2.86-1.709-4.186-3.279-4.186-6.907V9.528a4.109,4.109,0,0,1,2.023-4.046C38.1,3.423,43.821,1.5,46.577,1.5c1.709,0,2.442.8,2.442,2.163V31.643c0,1.081-.349,1.465-1.535,1.465h-2.86c-1.151,0-1.535-.384-1.535-1.465V9.562c0-.872-.209-1.186-.872-1.186a5.6,5.6,0,0,0-2.337.837,2.091,2.091,0,0,0-1.046,2.128V32.9a2.507,2.507,0,0,0,1.5,2.756c1.5.942,3.7,2.232,5.058,3,3,1.744,4.186,3.488,4.186,6.907v8.023c2.023-.488,4.046-1.012,6.035-1.57V7.469c-.7-.1-2.058-.244-3.453-.384-1.116-.1-1.291-.558-1.291-1.36V2.76c0-.872.453-1.36,1.43-1.36A46.407,46.407,0,0,1,65.134,3.772c1.081.419,1.291.837,1.291,1.639V8.795c0,.733-.384,1.046-.907,1.046A3.7,3.7,0,0,1,64.471,9.6c-1.221-.384-2.267-.733-2.965-.907V50.339c2.337-.733,4.6-1.5,6.837-2.267V6.214a.922.922,0,0,1,.907-1.046c.628,0,.942.488,1.4,1.5,1.709,3.977,5.825,13.464,9.1,21.034,1.186-3.279,2.616-7.29,2.93-8.162.209-.628.523-.942,1.012-.942.384,0,.663.174,1.116.733a34.833,34.833,0,0,1,6.662,17.86c5.232-3.453,8.407-6.907,8.407-9.906,0-2.965-2.825-5.476-9.627-5.825-.314,0-.488-.174-.488-.419,0-.209.174-.384.523-.384C98.063,20.655,101.76,24,101.76,27.387ZM22.613,37.363V22.294a30.468,30.468,0,0,0-5.407,15.069Zm51.835,8.372A116.621,116.621,0,0,0,85.819,40.5c-.035-4.221-.628-7.186-1.814-9.593-1.221,2.93-2.965,7.151-3.488,8.372-.174.453-.453.733-.8.733s-.558-.209-.8-.7c-.384-.733-2.721-5.581-4.465-9.244Z" fill="#00355b"/>
    <path id="Trazado_901281" data-name="Trazado 901281" d="M91.679,42.735a38.456,38.456,0,0,1-8.965,23.022.947.947,0,0,1-.837.453,1.552,1.552,0,0,1-.907-.349c-.558-.419-1.849-1.465-2.267-1.814a1.254,1.254,0,0,1-.593-.977,1.9,1.9,0,0,1,.419-1.046c3.942-5.686,6.069-10.5,6.872-15.7A55.283,55.283,0,0,0,91.679,42.735ZM74.448,51.142c-1.919.733-3.942,1.465-6.035,2.2V74.861c0,.767.349,1.151,1.012,1.151a2.109,2.109,0,0,0,.837-.174,29.327,29.327,0,0,0,3.349-1.849c.733-.523.837-.942.837-1.988V51.142ZM55.681,57.176V78.559a1.017,1.017,0,0,0,1.151,1.151,14.949,14.949,0,0,0,3.593-.733,1.381,1.381,0,0,0,1.151-1.535V55.467C59.658,56.06,57.7,56.618,55.681,57.176ZM22.613,62.723v3.942a2.73,2.73,0,0,0,1.116,2.616c.837.7,1.849,1.5,2.9,2.407a1.69,1.69,0,0,0,1.046.453c.488,0,.8-.314.8-1.012V62.3C26.52,62.478,24.531,62.618,22.613,62.723Zm21.034-2.686v12.1c0,.872-.349,1.186-1.046,1.186a6.709,6.709,0,0,1-2.756-.7A2.009,2.009,0,0,1,38.763,70.5V60.909c-1.988.349-3.977.628-5.93.907V72.455c0,2.232.663,3.418,2.791,4.6A30.236,30.236,0,0,0,47.03,80.024a2.317,2.317,0,0,0,2.616-2.477V58.641C47.623,59.165,45.635,59.618,43.647,60.037Zm58.113-32.65c0,9.558-23.057,21.976-53.648,29.161-9.523,2.232-20.406,4.011-29.057,4.011C6.463,60.56,1.3,56.095,1.3,51.037c0-3.07,1.849-5.965,5.756-8.581a1.2,1.2,0,0,1,.593-.244A.33.33,0,0,1,8,42.561c0,.174-.1.314-.314.488q-4.6,3.61-4.6,7.535c0,3.558,3.907,7.43,15.732,7.43,1.151,0,2.407-.035,3.8-.1V43.258H17.241a36.8,36.8,0,0,0,1.535,8.058,3.555,3.555,0,0,1,.174.837c0,.488-.244.767-.977,1.046-.872.314-1.674.593-2.442.872a2.763,2.763,0,0,1-.837.174c-.558,0-.872-.314-1.116-.942a35.943,35.943,0,0,1-2.3-13.151c0-11.72,6.279-23.266,15.174-30A1.805,1.805,0,0,1,27.6,9.7a.916.916,0,0,1,.942.942V57.455c1.4-.14,2.86-.349,4.36-.558V48.386c0-1.081.419-1.465,1.57-1.465h2.791c1.151,0,1.535.384,1.535,1.465v7.569c1.6-.279,3.209-.593,4.849-.942V46.991a2.609,2.609,0,0,0-1.535-2.756c-1.151-.7-3.453-2.058-5.058-3-2.86-1.709-4.186-3.279-4.186-6.907V9.528a4.109,4.109,0,0,1,2.023-4.046C38.1,3.423,43.821,1.5,46.577,1.5c1.709,0,2.442.8,2.442,2.163V31.643c0,1.081-.349,1.465-1.535,1.465h-2.86c-1.151,0-1.535-.384-1.535-1.465V9.562c0-.872-.209-1.186-.872-1.186a5.6,5.6,0,0,0-2.337.837,2.091,2.091,0,0,0-1.046,2.128V32.9a2.507,2.507,0,0,0,1.5,2.756c1.5.942,3.7,2.232,5.058,3,3,1.744,4.186,3.488,4.186,6.907v8.023c2.023-.488,4.046-1.012,6.035-1.57V7.469c-.7-.1-2.058-.244-3.453-.384-1.116-.1-1.291-.558-1.291-1.36V2.76c0-.872.453-1.36,1.43-1.36A46.407,46.407,0,0,1,65.134,3.772c1.081.419,1.291.837,1.291,1.639V8.795c0,.733-.384,1.046-.907,1.046A3.7,3.7,0,0,1,64.471,9.6c-1.221-.384-2.267-.733-2.965-.907V50.339c2.337-.733,4.6-1.5,6.837-2.267V6.214a.922.922,0,0,1,.907-1.046c.628,0,.942.488,1.4,1.5,1.709,3.977,5.825,13.464,9.1,21.034,1.186-3.279,2.616-7.29,2.93-8.162.209-.628.523-.942,1.012-.942.384,0,.663.174,1.116.733a34.833,34.833,0,0,1,6.662,17.86c5.232-3.453,8.407-6.907,8.407-9.906,0-2.965-2.825-5.476-9.627-5.825-.314,0-.488-.174-.488-.419,0-.209.174-.384.523-.384C98.063,20.655,101.76,24,101.76,27.387ZM22.613,37.363V22.294a30.468,30.468,0,0,0-5.407,15.069Zm51.835,8.372A116.621,116.621,0,0,0,85.819,40.5c-.035-4.221-.628-7.186-1.814-9.593-1.221,2.93-2.965,7.151-3.488,8.372-.174.453-.453.733-.8.733s-.558-.209-.8-.7c-.384-.733-2.721-5.581-4.465-9.244Z" fill="#00355b"/>
  </g>
</svg>
