<svg xmlns="http://www.w3.org/2000/svg" width="69.141" height="69.131" viewBox="0 0 69.141 69.131">
  <g id="Grupo_1109813" data-name="Grupo 1109813" transform="translate(0 -0.034)">
    <g id="Grupo_1109811" data-name="Grupo 1109811" transform="translate(1.008 1.047)">
      <path id="Trazado_901203" data-name="Trazado 901203" d="M248.9,415.573H226.842a3.041,3.041,0,0,1-2.889-2.094l-3.862-11.793h35.564l-3.862,11.793a3.04,3.04,0,0,1-2.889,2.094Z" transform="translate(-191.382 -348.467)" fill="#4f6c77"/>
      <path id="Trazado_901204" data-name="Trazado 901204" d="M220.091,401.685l.828,2.529h29.417a1.337,1.337,0,0,1,1.27,1.753l-3.145,9.6h.442a3.04,3.04,0,0,0,2.889-2.094l3.862-11.793H220.091Z" transform="translate(-191.382 -348.466)" fill="#395a61"/>
      <path id="Trazado_901205" data-name="Trazado 901205" d="M239.048,365.355H200.221a1.215,1.215,0,0,0-1.215,1.215v2.475a1.215,1.215,0,0,0,1.215,1.215h38.827a1.215,1.215,0,0,0,1.215-1.215V366.57A1.215,1.215,0,0,0,239.048,365.355Z" transform="translate(-173.143 -317.041)" fill="#4f6c77"/>
      <path id="Trazado_901206" data-name="Trazado 901206" d="M478.117,365.355h-2.724a1.215,1.215,0,0,1,1.215,1.215v2.475a1.215,1.215,0,0,1-1.215,1.215h2.724a1.215,1.215,0,0,0,1.215-1.215V366.57A1.215,1.215,0,0,0,478.117,365.355Z" transform="translate(-412.212 -317.041)" fill="#395a61"/>
      <path id="Trazado_901207" data-name="Trazado 901207" d="M12.244,164.143a43.739,43.739,0,0,1,14.208-5.686L35.8,175.893a43.741,43.741,0,0,1-12.6,8.683A10.247,10.247,0,0,1,9.96,180.048l-1.273-2.376a10.247,10.247,0,0,1,3.558-13.529Z" transform="translate(-7.463 -138.079)" fill="#4f6c77"/>
      <path id="Trazado_901208" data-name="Trazado 901208" d="M128.3,159.109l10,18.65q1.031-.9,2.023-1.865l-9.345-17.436Q129.616,158.745,128.3,159.109Z" transform="translate(-111.984 -138.079)" fill="#395a61"/>
      <path id="Trazado_901209" data-name="Trazado 901209" d="M152.25,152.474l-11.057-20.629a.9.9,0,0,1,.368-1.219l1.9-1.017a.9.9,0,0,1,1.219.368l11.057,20.629a.9.9,0,0,1-.368,1.219l-1.9,1.017A.9.9,0,0,1,152.25,152.474Z" transform="translate(-123.044 -113.034)" fill="#4f6c77"/>
      <path id="Trazado_901210" data-name="Trazado 901210" d="M87.09,87.3a4.341,4.341,0,0,1-4.341-4.341V57.1H91.43V82.963A4.341,4.341,0,0,1,87.09,87.3Z" transform="translate(-72.584 -50.406)" fill="#ffe270"/>
      <path id="Trazado_901211" data-name="Trazado 901211" d="M82.749,57.1H91.43V59.88H82.749Z" transform="translate(-72.584 -50.406)" fill="#ffd250"/>
      <path id="Trazado_901212" data-name="Trazado 901212" d="M56.658,14.314H10.715a3.147,3.147,0,0,1-3.147-3.147V7.534H59.8v3.634A3.147,3.147,0,0,1,56.658,14.314Z" transform="translate(-7.554 -7.534)" fill="#ff6c53"/>
      <path id="Trazado_901213" data-name="Trazado 901213" d="M352.668,7.534v3.634a3.147,3.147,0,0,1-3.147,3.147h2.918a3.147,3.147,0,0,0,3.147-3.147V7.534Z" transform="translate(-303.336 -7.534)" fill="#ff534a"/>
      <g id="Grupo_1109809" data-name="Grupo 1109809" transform="translate(6.923 3.39)">
        <path id="Trazado_901214" data-name="Trazado 901214" d="M292.834,36.032H284.96V33.611a.969.969,0,0,1,.969-.969h5.936a.969.969,0,0,1,.969.969v2.421Z" transform="translate(-254.414 -32.642)" fill="#ffe270"/>
        <path id="Trazado_901215" data-name="Trazado 901215" d="M66.607,36.032H58.733V33.611a.969.969,0,0,1,.969-.969h5.936a.969.969,0,0,1,.969.969v2.421Z" transform="translate(-58.733 -32.642)" fill="#ffe270"/>
      </g>
      <path id="Trazado_901216" data-name="Trazado 901216" d="M195.725,185.337l6.857.685A20.958,20.958,0,0,1,219.625,198.3l5.084,11.34H207.346l-.378-8.174a4.469,4.469,0,0,0-4.871-4.244Z" transform="translate(-170.306 -161.33)" fill="#ff6c53"/>
      <g id="Grupo_1109810" data-name="Grupo 1109810" transform="translate(25.419 24.007)">
        <path id="Trazado_901217" data-name="Trazado 901217" d="M281.068,349.643H298.43l-1.1-2.453H280.954Z" transform="translate(-269.446 -325.336)" fill="#ff534a"/>
        <path id="Trazado_901218" data-name="Trazado 901218" d="M198.146,185.579l-2.421-.242,6.372,11.889a4.444,4.444,0,0,1,2.586.549Z" transform="translate(-195.725 -185.337)" fill="#ff534a"/>
      </g>
    </g>
    <g id="Grupo_1109812" data-name="Grupo 1109812" transform="translate(0 0.034)">
      <path id="Trazado_901219" data-name="Trazado 901219" d="M66.913,48.348H56.067L51.251,37.606A22.024,22.024,0,0,0,33.385,24.731l-6.32-.631-3.531-6.588a1.913,1.913,0,0,0-2.59-.782l-.078.042V8.84H50.111A4.164,4.164,0,0,0,54.271,4.68V1.047A1.013,1.013,0,0,0,53.258.034H23.664a1.013,1.013,0,1,0,0,2.025H52.245V4.68a2.136,2.136,0,0,1-2.134,2.134H47.362V5.406a1.984,1.984,0,0,0-1.982-1.982H39.445a1.984,1.984,0,0,0-1.982,1.982V6.814L16.817,6.726V5.406a1.984,1.984,0,0,0-1.982-1.982H8.9A1.984,1.984,0,0,0,6.917,5.406V6.814H4.16A2.136,2.136,0,0,1,2.035,4.68V2.059H19.749a1.013,1.013,0,0,0,0-2.025H1.022A1.013,1.013,0,0,0,.009,1.047V4.68A4.166,4.166,0,0,0,3.533,8.791l1.934,3.654a.737.737,0,0,1-.064.787l-.937,1.237A2.76,2.76,0,0,0,5.1,18.41a2.764,2.764,0,0,0,2.5.321L10.16,17.8v5.8a43.937,43.937,0,0,0-4.909,2.648A11.28,11.28,0,0,0,1.338,41.118l1.273,2.376c.056.105.116.208.175.31l.017.029a1.013,1.013,0,0,0,1.752-1.017l-.017-.029c-.048-.082-.1-.165-.141-.249L3.124,40.161a9.25,9.25,0,0,1,3.2-12.192,41.839,41.839,0,0,1,3.835-2.125V33.6a5.353,5.353,0,1,0,10.706,0V25.192l7.22,13.471a42.8,42.8,0,0,1-11.764,7.958,9.177,9.177,0,0,1-9.447-1.145,1.013,1.013,0,1,0-1.244,1.6,11.189,11.189,0,0,0,11.527,1.392A44.719,44.719,0,0,0,29.077,40.51l.244.455a1.9,1.9,0,0,0,1.133.927,1.9,1.9,0,0,0,1.457-.145l1.9-1.017a1.913,1.913,0,0,0,.835-2.483,3.477,3.477,0,0,1,.833.54,3.426,3.426,0,0,1,1.182,2.446l.329,7.114h-8.9a2.23,2.23,0,0,0-2.228,2.228V53.05a2.23,2.23,0,0,0,2.228,2.228h.9l3.633,11.1a4.044,4.044,0,0,0,3.852,2.792H46.523a1.013,1.013,0,0,0,0-2.025H36.469a2.024,2.024,0,0,1-1.927-1.4L31.115,55.278H63.884L60.457,65.743a2.023,2.023,0,0,1-1.927,1.4H50.438a1.013,1.013,0,0,0,0,2.025H58.53a4.044,4.044,0,0,0,3.852-2.792l3.633-11.1h.9a2.23,2.23,0,0,0,2.228-2.228V50.576a2.231,2.231,0,0,0-2.228-2.228ZM39.489,5.449h5.848V6.814H39.489Zm-30.546,0h5.848V6.814H8.943ZM6.916,16.827a.735.735,0,0,1-.976-.574.727.727,0,0,1,.14-.56l.937-1.237A2.769,2.769,0,0,0,7.257,11.5L5.85,8.84h4.31V15.65Zm8.6,20.105A3.332,3.332,0,0,1,12.186,33.6V8.84h6.656V33.6A3.332,3.332,0,0,1,15.514,36.932ZM31.053,39.91l-10.186-19V19.069l.935-.5L32.752,39Zm7.629,1.23A5.484,5.484,0,0,0,33.4,35.914L28.217,26.25l4.967.5A19.994,19.994,0,0,1,49.4,38.434l4.444,9.913H39.016ZM67.115,53.05a.2.2,0,0,1-.2.2H28.086a.2.2,0,0,1-.2-.2V50.576a.2.2,0,0,1,.2-.2H66.913a.2.2,0,0,1,.2.2Z" transform="translate(0 -0.034)"/>
      <path id="Trazado_901220" data-name="Trazado 901220" d="M108.409,234.552a1.013,1.013,0,0,0-1.013,1.013v1.427a1.013,1.013,0,1,0,2.025,0v-1.427A1.013,1.013,0,0,0,108.409,234.552Z" transform="translate(-92.895 -202.887)"/>
      <path id="Trazado_901221" data-name="Trazado 901221" d="M280.326,432.717a1.013,1.013,0,0,0,0,2.025h1.962a1.013,1.013,0,0,0,0-2.025Z" transform="translate(-241.6 -374.295)"/>
      <path id="Trazado_901222" data-name="Trazado 901222" d="M340,432.717h-1.962a1.013,1.013,0,1,0,0,2.025H340a1.013,1.013,0,0,0,0-2.025Z" transform="translate(-291.516 -374.295)"/>
      <path id="Trazado_901223" data-name="Trazado 901223" d="M397.7,434.742a1.013,1.013,0,0,0,0-2.025h-1.962a1.013,1.013,0,1,0,0,2.025Z" transform="translate(-341.432 -374.295)"/>
    </g>
  </g>
</svg>
